# This file uses centimeters as units for non-parametric coordinates.

mtllib SideSkirt1.mtl
g default
v 3.483234 -1.614906 4.155058
v 3.478545 -1.641710 1.702425
v 3.478545 -1.652243 0.644939
v 3.478545 -1.679515 -1.368488
v 0.000000 -1.652243 0.644939
v 3.478545 -1.706787 -3.253679
v 0.000000 -1.679515 -1.368488
v 0.000000 -1.706787 -3.253679
v 3.478545 -1.703335 -3.377617
v 3.455337 -1.587391 -3.521782
v 0.000000 -1.638239 1.681163
v -3.483234 -1.614906 4.155058
v -3.478546 -1.641710 1.702425
v -3.478546 -1.652243 0.644939
v -3.478546 -1.679515 -1.368488
v -3.478546 -1.706787 -3.253679
v -3.478546 -1.703335 -3.377617
v -3.455337 -1.587391 -3.521782
v 3.483234 -1.143905 4.121139
v 2.455892 -1.143905 4.121139
v 3.478545 -1.304062 1.728065
v 3.478545 -1.323567 0.717209
v 3.478545 -1.345864 -1.286843
v 3.478545 -1.362592 -2.771433
v 3.478545 -1.367910 -3.243351
v 3.478545 -1.368837 -3.319694
v 3.455337 -1.297855 -3.541446
v 1.931524 -1.297855 -3.541446
v -2.455892 -1.143905 4.121139
v -3.483234 -1.143905 4.121139
v -3.478546 -1.304062 1.728065
v -3.478546 -1.323567 0.717209
v -3.478546 -1.345864 -1.286843
v -3.478546 -1.362592 -2.771433
v -3.478546 -1.367910 -3.243351
v -3.478546 -1.368837 -3.319694
v -3.455337 -1.297855 -3.541446
v -1.931524 -1.297855 -3.541446
vt 0.472990 0.679337
vt 0.474133 0.724975
vt 0.493968 0.678812
vt 0.772529 0.300069
vt 0.835482 0.417954
vt 0.851604 0.408829
vt 0.792559 0.290778
vt 0.840078 0.474465
vt 0.858444 0.469587
vt 0.838458 0.587156
vt 0.857412 0.585829
vt 0.294258 0.626325
vt 0.294196 0.657889
vt 0.339023 0.626055
vt 0.806909 0.680643
vt 0.834252 0.665609
vt 0.339025 0.586806
vt 0.294261 0.586803
vt 0.294259 0.612716
vt 0.339024 0.612719
vt 0.339026 0.562543
vt 0.294262 0.562541
vt 0.818634 0.689981
vt 0.294262 0.560945
vt 0.801903 0.683722
vt 0.815576 0.693430
vt 0.799042 0.691202
vt 0.804840 0.702612
vt 0.960434 0.490691
vt 0.903210 0.502409
vt 0.960584 0.501618
vt 0.472990 0.679337
vt 0.493968 0.678812
vt 0.474133 0.724975
vt 0.772529 0.300069
vt 0.792559 0.290778
vt 0.851604 0.408829
vt 0.835482 0.417954
vt 0.858444 0.469587
vt 0.840078 0.474465
vt 0.857412 0.585829
vt 0.838458 0.587156
vt 0.294258 0.626325
vt 0.339023 0.626055
vt 0.294196 0.657889
vt 0.834252 0.665609
vt 0.806909 0.680643
vt 0.339025 0.586806
vt 0.339024 0.612719
vt 0.294259 0.612716
vt 0.294261 0.586803
vt 0.339026 0.562543
vt 0.294262 0.562541
vt 0.818634 0.689981
vt 0.294262 0.560945
vt 0.815576 0.693430
vt 0.801903 0.683722
vt 0.799042 0.691202
vt 0.804840 0.702612
vt 0.960434 0.490691
vt 0.960584 0.501618
vt 0.903210 0.502409
vn 0.000000 0.071830 0.997417
vn 0.000000 0.071830 0.997417
vn 0.000000 0.071830 0.997417
vn 0.999998 -0.000020 -0.001934
vn 0.999999 -0.000014 -0.001390
vn 0.999999 -0.000015 -0.001486
vn 0.999998 -0.000020 -0.001934
vn 0.999999 -0.000014 -0.001390
vn 1.000000 0.000001 0.000000
vn 1.000000 0.000000 0.000000
vn 0.999999 -0.000015 -0.001486
vn 1.000000 0.000000 0.000000
vn 1.000000 0.000001 0.000000
vn 1.000000 0.000000 0.000000
vn 1.000000 0.000001 0.000000
vn -0.000822 -0.999936 0.011292
vn -0.001065 -0.999940 0.010930
vn -0.000700 -0.999934 0.011473
vn 1.000000 0.000000 0.000000
vn 1.000000 -0.000000 0.000000
vn 1.000000 -0.000000 0.000000
vn 1.000000 0.000001 0.000000
vn 0.000000 -0.999902 0.013989
vn 0.000000 -0.999902 0.013989
vn -0.000183 -0.999917 0.012919
vn -0.000183 -0.999917 0.012919
vn 0.000000 -0.999896 0.014433
vn 0.000000 -0.999914 0.013119
vn 0.000000 -0.999902 0.013989
vn 0.000000 -0.999902 0.013989
vn 1.000000 -0.000000 0.000000
vn 1.000000 -0.000001 0.000000
vn 1.000000 -0.000000 0.000000
vn 0.000000 -0.999613 -0.027834
vn 0.000000 -0.999914 0.013119
vn 0.000000 -0.999896 0.014433
vn 1.000000 -0.000001 0.000000
vn 1.000000 -0.000000 0.000000
vn 0.997572 0.004262 -0.069505
vn 0.997006 0.004732 -0.077183
vn 0.992492 0.007485 -0.122078
vn 0.992492 0.007485 -0.122078
vn 0.997006 0.004732 -0.077183
vn 0.997572 0.004262 -0.069505
vn 0.000000 -0.067760 -0.997702
vn 0.000000 -0.067760 -0.997702
vn 0.000000 -0.067760 -0.997702
vn -0.000822 -0.999936 0.011292
vn -0.000700 -0.999934 0.011473
vn -0.000183 -0.999917 0.012919
vn -0.000183 -0.999917 0.012919
vn 0.000000 0.071830 0.997417
vn 0.000000 0.071830 0.997417
vn 0.000000 0.071830 0.997417
vn -0.999998 -0.000020 -0.001934
vn -0.999998 -0.000020 -0.001934
vn -0.999999 -0.000016 -0.001485
vn -0.999999 -0.000015 -0.001390
vn -0.999999 -0.000015 -0.001390
vn -0.999999 -0.000016 -0.001485
vn -1.000000 0.000000 0.000000
vn -1.000000 0.000001 0.000000
vn -1.000000 0.000000 0.000000
vn -1.000000 0.000001 0.000000
vn -1.000000 0.000000 0.000000
vn -1.000000 0.000001 0.000000
vn 0.000822 -0.999936 0.011292
vn 0.000700 -0.999934 0.011473
vn 0.001065 -0.999940 0.010930
vn -1.000000 0.000000 0.000000
vn -1.000000 0.000001 0.000000
vn -1.000000 0.000000 0.000000
vn -1.000000 0.000000 0.000000
vn 0.000000 -0.999902 0.013989
vn 0.000183 -0.999917 0.012919
vn 0.000183 -0.999917 0.012919
vn 0.000000 -0.999902 0.013989
vn 0.000000 -0.999896 0.014433
vn 0.000000 -0.999902 0.013989
vn 0.000000 -0.999902 0.013989
vn 0.000000 -0.999914 0.013119
vn -1.000000 0.000000 0.000000
vn -1.000000 0.000000 0.000000
vn -1.000000 0.000001 0.000000
vn 0.000000 -0.999613 -0.027834
vn 0.000000 -0.999896 0.014433
vn 0.000000 -0.999914 0.013119
vn -1.000000 0.000001 0.000000
vn -0.997006 0.004733 -0.077185
vn -0.997572 0.004262 -0.069507
vn -1.000000 0.000000 0.000000
vn -0.992492 0.007485 -0.122080
vn -0.997572 0.004262 -0.069507
vn -0.997006 0.004733 -0.077185
vn -0.992492 0.007485 -0.122080
vn 0.000000 -0.067760 -0.997702
vn 0.000000 -0.067760 -0.997702
vn 0.000000 -0.067760 -0.997702
vn 0.000822 -0.999936 0.011292
vn 0.000183 -0.999917 0.012919
vn 0.000183 -0.999917 0.012919
vn 0.000700 -0.999934 0.011473
s off
g SideSkirt1 polySurface58 pPipe8 group
usemtl polySurface57SG
f 19/1/1 20/2/2 1/3/3
f 1/4/4 2/5/5 21/6/6 19/7/7
f 2/5/8 3/8/9 22/9/10 21/6/11
f 22/9/12 3/8/13 4/10/14 23/11/15
f 2/12/16 1/13/17 11/14/18
f 4/10/19 6/15/20 24/16/21 23/11/22
f 7/17/23 4/18/24 3/19/25 5/20/26
f 8/21/27 6/22/28 4/18/29 7/17/30
f 6/15/31 25/23/32 24/16/33
f 9/24/34 6/22/35 8/21/36
f 25/23/37 6/15/38 9/25/39 26/26/40
f 10/27/41 27/28/42 26/26/43 9/25/44
f 10/29/45 28/30/46 27/31/47
f 2/12/48 11/14/49 5/20/50 3/19/51
f 30/32/52 12/33/53 29/34/54
f 12/35/55 30/36/56 31/37/57 13/38/58
f 13/38/59 31/37/60 32/39/61 14/40/62
f 32/39/63 33/41/64 15/42/65 14/40/66
f 13/43/67 11/44/68 12/45/69
f 15/42/70 33/41/71 34/46/72 16/47/73
f 7/48/74 5/49/75 14/50/76 15/51/77
f 8/52/78 7/48/79 15/51/80 16/53/81
f 16/47/82 34/46/83 35/54/84
f 17/55/85 8/52/86 16/53/87
f 35/54/88 36/56/89 17/57/90 16/47/91
f 18/58/92 17/57/93 36/56/94 37/59/95
f 18/60/96 37/61/97 38/62/98
f 13/43/99 14/50/100 5/49/101 11/44/102
