# This file uses centimeters as units for non-parametric coordinates.

mtllib Spoiler2.mtl
g Kit_4:default1
v 0.000000 3.637220 9.021961
v 2.393916 3.702999 9.194320
v 0.000000 3.794122 9.194320
v 2.393916 3.702999 8.412515
v 0.000000 3.794122 8.412515
v 0.000000 3.670832 8.240156
v 2.967564 3.228379 8.240156
v 2.967564 3.228379 9.021961
v 2.756581 3.498718 9.086391
v 2.756581 3.498718 8.352252
v 2.852053 1.104360 7.695259
v 2.834696 1.104360 8.590423
v 2.967564 1.104360 8.590423
v 2.967564 1.104360 7.695259
v 2.830905 3.177819 8.979732
v 2.662643 3.425206 9.009855
v 2.428110 3.555964 9.021961
v 2.848311 3.177235 8.200552
v 2.428110 3.589576 8.240156
v 2.662660 3.401006 8.228804
v 2.967564 2.166369 7.995952
v 2.967564 2.166369 8.760733
v 2.799624 2.141089 8.739618
v 2.817005 2.140798 7.976150
v 2.967564 2.697374 8.118054
v 2.967564 2.697374 8.891347
v 2.815264 2.659454 8.859675
v 2.832658 2.659016 8.088351
v -2.393916 3.702999 9.194320
v -2.393916 3.702999 8.412515
v -2.967564 3.228379 8.240156
v -2.967564 3.228379 9.021961
v -2.756581 3.498718 9.086391
v -2.756581 3.498718 8.352252
v -2.852053 1.104360 7.695259
v -2.834696 1.104360 8.590423
v -2.967564 1.104360 8.590423
v -2.967564 1.104360 7.695259
v -2.830905 3.177819 8.979732
v -2.662643 3.425206 9.009855
v -2.428110 3.555964 9.021961
v -2.848311 3.177235 8.200552
v -2.428110 3.589576 8.240156
v -2.662660 3.401006 8.228804
v -2.967564 2.166369 7.995952
v -2.967564 2.166369 8.760733
v -2.799624 2.141089 8.739618
v -2.817005 2.140798 7.976150
v -2.967564 2.697374 8.118054
v -2.967564 2.697374 8.891347
v -2.815264 2.659454 8.859675
v -2.832658 2.659016 8.088351
vt 0.375000 0.250000
vt 0.375000 0.500000
vt 0.625000 0.500000
vt 0.625000 0.250000
vt 0.386105 1.000000
vt 0.625000 1.000000
vt 0.625000 0.750000
vt 0.375000 0.702468
vt 0.125000 0.000000
vt 0.125000 0.250000
vt 0.375000 0.250000
vt 0.375000 0.000000
vt 0.125000 0.250000
vt 0.125000 0.047532
vt 0.155995 0.000000
vt 0.148247 0.000000
vt 0.375000 0.000000
vt 0.375000 0.000000
vt 0.375000 0.000000
vt 0.125000 0.000000
vt 0.375000 0.750000
vt 0.375000 1.000000
vt 0.375000 0.000000
vt 0.125000 0.000000
vt 0.625000 0.000000
vt 0.386105 0.000000
vt 0.375000 0.000000
vt 0.375000 0.000000
vt 0.375000 0.000000
vt 0.125000 0.000000
vt 0.125000 0.000000
vt 0.375000 0.000000
vt 0.375000 0.000000
vt 0.140498 0.000000
vt 0.125000 0.000000
vt 0.375000 0.250000
vt 0.625000 0.250000
vt 0.625000 0.500000
vt 0.375000 0.500000
vt 0.386105 1.000000
vt 0.375000 0.702468
vt 0.625000 0.750000
vt 0.625000 1.000000
vt 0.125000 0.000000
vt 0.375000 0.000000
vt 0.375000 0.250000
vt 0.125000 0.250000
vt 0.125000 0.250000
vt 0.125000 0.047532
vt 0.155995 0.000000
vt 0.375000 0.000000
vt 0.375000 0.000000
vt 0.148247 0.000000
vt 0.125000 0.000000
vt 0.375000 0.000000
vt 0.375000 1.000000
vt 0.375000 0.750000
vt 0.375000 0.000000
vt 0.125000 0.000000
vt 0.386105 0.000000
vt 0.625000 0.000000
vt 0.375000 0.000000
vt 0.375000 0.000000
vt 0.125000 0.000000
vt 0.125000 0.000000
vt 0.375000 0.000000
vt 0.375000 0.000000
vt 0.375000 0.000000
vt 0.140498 0.000000
vt 0.125000 0.000000
vn 0.095219 0.995456 0.000000
vn 0.109962 0.993936 0.000000
vn 0.038037 0.999276 0.000000
vn 0.038037 0.999276 0.000000
vn -0.089302 -0.995217 -0.039591
vn -0.033415 -0.998519 -0.042929
vn -0.033415 -0.998519 -0.042929
vn -0.090349 -0.995125 -0.039527
vn 0.980415 0.196942 0.000000
vn 0.658701 0.752405 0.000000
vn 0.616622 0.787259 0.000000
vn 0.955412 0.295276 0.000000
vn 0.095219 0.995456 0.000000
vn 0.616622 0.787259 0.000000
vn 0.658701 0.752405 0.000000
vn 0.109962 0.993936 0.000000
vn 0.089160 0.814685 -0.573009
vn 0.029505 0.825360 -0.563836
vn 0.029505 0.825360 -0.563836
vn 0.054921 0.821193 -0.568001
vn -0.984297 -0.175806 -0.015897
vn -0.999125 0.035219 -0.022565
vn -0.999126 0.035212 -0.022536
vn -0.969803 -0.243511 -0.013586
vn 0.955412 0.295276 0.000000
vn 1.000000 0.000000 0.000000
vn 1.000000 0.000000 0.000000
vn 0.980415 0.196942 0.000000
vn -0.089302 -0.995217 -0.039591
vn -0.090349 -0.995125 -0.039527
vn -0.699141 -0.714981 -0.002010
vn -0.685267 -0.728288 -0.002339
vn -0.685267 -0.728288 -0.002339
vn -0.699141 -0.714981 -0.002010
vn -0.984297 -0.175806 -0.015897
vn -0.969803 -0.243511 -0.013586
vn -0.213373 -0.280733 0.935768
vn -0.207976 -0.272907 0.939291
vn -0.137550 -0.228193 0.963851
vn -0.149079 -0.227642 0.962265
vn 0.357678 0.611894 -0.705445
vn 0.089160 0.814685 -0.573009
vn 0.054921 0.821193 -0.568001
vn 0.362962 0.624895 -0.691205
vn 0.233982 0.318238 -0.918682
vn 0.357678 0.611894 -0.705445
vn 0.362962 0.624895 -0.691205
vn 0.244218 0.342044 -0.907394
vn 0.233982 0.318238 -0.918682
vn 0.244218 0.342044 -0.907394
vn 0.158591 0.212931 -0.964111
vn 0.144706 0.213593 -0.966146
vn -0.038199 -0.749208 0.661232
vn -0.026852 -0.751131 0.659607
vn -0.026852 -0.751131 0.659607
vn -0.056561 -0.745881 0.663673
vn -0.265097 -0.548370 0.793104
vn -0.038199 -0.749208 0.661232
vn -0.056561 -0.745881 0.663673
vn -0.264415 -0.561992 0.783741
vn -0.213373 -0.280733 0.935768
vn -0.265097 -0.548370 0.793104
vn -0.264415 -0.561992 0.783741
vn -0.207976 -0.272907 0.939291
vn 1.000000 0.000000 0.000000
vn 1.000000 0.000000 0.000000
vn 1.000000 0.000000 0.000000
vn 1.000000 0.000000 0.000000
vn -0.074093 -0.175027 0.981772
vn -0.056567 -0.151186 0.986886
vn -0.056567 -0.151186 0.986886
vn -0.079790 -0.182762 0.979914
vn -0.999687 -0.012970 -0.021374
vn -0.999347 -0.029460 -0.020925
vn -0.999347 -0.029460 -0.020925
vn -0.999751 -0.005633 -0.021573
vn 0.075978 0.246375 -0.966192
vn 0.045920 0.267512 -0.962460
vn 0.045920 0.267512 -0.962460
vn 0.067638 0.252282 -0.965287
vn 1.000000 0.000000 0.000000
vn 1.000000 0.000000 0.000000
vn 1.000000 0.000000 0.000000
vn 1.000000 0.000000 0.000000
vn -0.137550 -0.228193 0.963851
vn -0.074093 -0.175027 0.981772
vn -0.079790 -0.182762 0.979914
vn -0.149079 -0.227642 0.962265
vn -0.999125 0.035219 -0.022565
vn -0.999687 -0.012970 -0.021374
vn -0.999751 -0.005633 -0.021573
vn -0.999126 0.035212 -0.022536
vn 0.158591 0.212931 -0.964111
vn 0.075978 0.246375 -0.966192
vn 0.067638 0.252282 -0.965287
vn 0.144706 0.213593 -0.966146
vn -0.095219 0.995456 0.000000
vn -0.038037 0.999276 0.000000
vn -0.038037 0.999276 0.000000
vn -0.109962 0.993936 0.000000
vn 0.089302 -0.995218 -0.039591
vn 0.090349 -0.995125 -0.039527
vn 0.033415 -0.998519 -0.042929
vn 0.033415 -0.998519 -0.042929
vn -0.980415 0.196942 0.000000
vn -0.955412 0.295276 0.000000
vn -0.616622 0.787259 0.000000
vn -0.658701 0.752405 0.000000
vn -0.095219 0.995456 0.000000
vn -0.109962 0.993936 0.000000
vn -0.658701 0.752405 0.000000
vn -0.616622 0.787259 0.000000
vn -0.089160 0.814684 -0.573010
vn -0.054921 0.821193 -0.568002
vn -0.029505 0.825359 -0.563836
vn -0.029505 0.825359 -0.563836
vn 0.984297 -0.175805 -0.015897
vn 0.969803 -0.243511 -0.013586
vn 0.999126 0.035213 -0.022536
vn 0.999125 0.035219 -0.022565
vn -0.955412 0.295276 0.000000
vn -0.980415 0.196942 0.000000
vn -1.000000 0.000000 0.000000
vn -1.000000 0.000000 0.000000
vn 0.089302 -0.995218 -0.039591
vn 0.685267 -0.728288 -0.002339
vn 0.699141 -0.714981 -0.002010
vn 0.090349 -0.995125 -0.039527
vn 0.685267 -0.728288 -0.002339
vn 0.969803 -0.243511 -0.013586
vn 0.984297 -0.175805 -0.015897
vn 0.699141 -0.714981 -0.002010
vn 0.213375 -0.280733 0.935767
vn 0.149081 -0.227642 0.962265
vn 0.137551 -0.228193 0.963850
vn 0.207978 -0.272907 0.939291
vn -0.357675 0.611894 -0.705446
vn -0.362960 0.624896 -0.691206
vn -0.054921 0.821193 -0.568002
vn -0.089160 0.814684 -0.573010
vn -0.233980 0.318238 -0.918683
vn -0.244216 0.342044 -0.907394
vn -0.362960 0.624896 -0.691206
vn -0.357675 0.611894 -0.705446
vn -0.233980 0.318238 -0.918683
vn -0.144704 0.213593 -0.966146
vn -0.158590 0.212931 -0.964111
vn -0.244216 0.342044 -0.907394
vn 0.038199 -0.749208 0.661232
vn 0.056560 -0.745881 0.663673
vn 0.026852 -0.751131 0.659607
vn 0.026852 -0.751131 0.659607
vn 0.265096 -0.548370 0.793104
vn 0.264414 -0.561992 0.783741
vn 0.056560 -0.745881 0.663673
vn 0.038199 -0.749208 0.661232
vn 0.213375 -0.280733 0.935767
vn 0.207978 -0.272907 0.939291
vn 0.264414 -0.561992 0.783741
vn 0.265096 -0.548370 0.793104
vn -1.000000 0.000000 0.000000
vn -1.000000 0.000000 0.000000
vn -1.000000 0.000000 0.000000
vn -1.000000 0.000000 0.000000
vn 0.074091 -0.175027 0.981772
vn 0.079788 -0.182762 0.979914
vn 0.056565 -0.151185 0.986886
vn 0.056565 -0.151185 0.986886
vn 0.999687 -0.012970 -0.021374
vn 0.999751 -0.005632 -0.021573
vn 0.999347 -0.029460 -0.020925
vn 0.999347 -0.029460 -0.020925
vn -0.075978 0.246376 -0.966192
vn -0.067638 0.252282 -0.965287
vn -0.045921 0.267512 -0.962460
vn -0.045921 0.267512 -0.962460
vn -1.000000 0.000000 0.000000
vn -1.000000 0.000000 0.000000
vn -1.000000 0.000000 0.000000
vn -1.000000 0.000000 0.000000
vn 0.137551 -0.228193 0.963850
vn 0.149081 -0.227642 0.962265
vn 0.079788 -0.182762 0.979914
vn 0.074091 -0.175027 0.981772
vn 0.999125 0.035219 -0.022565
vn 0.999126 0.035213 -0.022536
vn 0.999751 -0.005632 -0.021573
vn 0.999687 -0.012970 -0.021374
vn -0.158590 0.212931 -0.964111
vn -0.144704 0.213593 -0.966146
vn -0.067638 0.252282 -0.965287
vn -0.075978 0.246376 -0.966192
s off
g Kit_4:group Kit_4:pCube33 Spoiler2 Kit_4:polySurface1 group8
usemtl initialShadingGroup
f 2/1/1 4/2/2 5/3/3 3/4/4
f 17/5/5 1/6/6 6/7/7 19/8/8
f 7/9/9 10/10/10 9/11/11 8/12/12
f 2/1/13 9/11/14 10/10/15 4/13/16
f 19/14/17 6/7/18 5/3/19 4/2/20
f 18/15/21 28/16/22 27/17/23 15/18/24
f 8/12/25 26/19/26 25/20/27 7/9/28
f 17/5/29 19/8/30 20/21/31 16/22/32
f 16/23/33 20/24/34 18/15/35 15/18/36
f 8/12/37 15/18/38 27/17/39 26/19/40
f 20/24/41 19/14/42 4/2/43 10/10/44
f 18/15/45 20/24/46 10/10/47 7/9/48
f 18/15/49 7/9/50 25/20/51 28/16/52
f 2/1/53 3/4/54 1/25/55 17/26/56
f 9/11/57 2/1/58 17/26/59 16/27/60
f 8/12/61 9/11/62 16/27/63 15/18/64
f 22/28/65 13/29/66 14/30/67 21/31/68
f 23/32/69 12/33/70 13/29/71 22/28/72
f 24/34/73 11/35/74 12/33/75 23/32/76
f 21/31/77 14/30/78 11/35/79 24/34/80
f 26/19/81 22/28/82 21/31/83 25/20/84
f 27/17/85 23/32/86 22/28/87 26/19/88
f 28/16/89 24/34/90 23/32/91 27/17/92
f 25/20/93 21/31/94 24/34/95 28/16/96
f 29/36/97 3/37/98 5/38/99 30/39/100
f 41/40/101 43/41/102 6/42/103 1/43/104
f 31/44/105 32/45/106 33/46/107 34/47/108
f 29/36/109 30/48/110 34/47/111 33/46/112
f 43/49/113 30/39/114 5/38/115 6/42/116
f 42/50/117 39/51/118 51/52/119 52/53/120
f 32/45/121 31/44/122 49/54/123 50/55/124
f 41/40/125 40/56/126 44/57/127 43/41/128
f 40/58/129 39/51/130 42/50/131 44/59/132
f 32/45/133 50/55/134 51/52/135 39/51/136
f 44/59/137 34/47/138 30/39/139 43/49/140
f 42/50/141 31/44/142 34/47/143 44/59/144
f 42/50/145 52/53/146 49/54/147 31/44/148
f 29/36/149 41/60/150 1/61/151 3/37/152
f 33/46/153 40/62/154 41/60/155 29/36/156
f 32/45/157 39/51/158 40/62/159 33/46/160
f 46/63/161 45/64/162 38/65/163 37/66/164
f 47/67/165 46/63/166 37/66/167 36/68/168
f 48/69/169 47/67/170 36/68/171 35/70/172
f 45/64/173 48/69/174 35/70/175 38/65/176
f 50/55/177 49/54/178 45/64/179 46/63/180
f 51/52/181 50/55/182 46/63/183 47/67/184
f 52/53/185 51/52/186 47/67/187 48/69/188
f 49/54/189 52/53/190 48/69/191 45/64/192
