# This file uses centimeters as units for non-parametric coordinates.

mtllib add_spoiler.mtl
g default
v 1.058499 -0.619353 0.479818
v 1.154985 -0.619353 0.479818
v 1.085422 0.597515 0.022139
v 1.128062 0.597515 0.022139
v 1.085422 0.541922 -0.147966
v 1.128062 0.541922 -0.147966
v 1.058499 -0.710374 0.201306
v 1.154985 -0.710374 0.201306
v -2.598184 0.545901 0.301521
v 2.598184 0.545901 0.301521
v -2.598184 0.652828 0.301521
v 2.598184 0.652828 0.301521
v -2.598184 0.630564 -0.343366
v 2.598184 0.630564 -0.343366
v -2.598184 0.568165 -0.343366
v 2.598184 0.568165 -0.343366
v 0.866061 0.630564 -0.479818
v 0.866061 0.568165 -0.479818
v 0.866061 0.545901 0.301521
v 0.866061 0.652828 0.301521
v -0.866062 0.630564 -0.479818
v -0.866062 0.568165 -0.479818
v -0.866062 0.545901 0.301521
v -0.866062 0.652828 0.301521
v -2.551070 0.630564 -0.347077
v -2.551070 0.568165 -0.347077
v -2.551070 0.545901 0.301521
v -2.551070 0.652828 0.301521
v 2.547570 0.652828 0.301521
v 2.547570 0.630564 -0.347353
v 2.547570 0.568165 -0.347353
v 2.547570 0.545901 0.301521
v -2.598184 0.338954 -0.343366
v -2.551070 0.338954 -0.347077
v -2.551070 0.316690 0.301521
v -2.598184 0.316690 0.301521
v 2.547570 0.338954 -0.347353
v 2.547570 0.316690 0.301521
v 2.598184 0.338954 -0.343366
v 2.598184 0.316690 0.301521
v -2.598184 0.710374 0.301521
v -2.551070 0.710374 0.301521
v -2.551070 0.688110 -0.347077
v -2.598184 0.688110 -0.343366
v 2.547570 0.710374 0.301521
v 2.547570 0.688110 -0.347353
v 2.598184 0.710374 0.301521
v 2.598184 0.688110 -0.343366
v -1.164034 -0.619353 0.479818
v -1.067548 -0.619353 0.479818
v -1.137112 0.597515 0.022139
v -1.094471 0.597515 0.022139
v -1.137112 0.541922 -0.147966
v -1.094471 0.541922 -0.147966
v -1.164034 -0.710374 0.201306
v -1.067548 -0.710374 0.201306
vt 0.375000 0.000000
vt 0.625000 0.000000
vt 0.375000 0.250000
vt 0.625000 0.250000
vt 0.375000 0.500000
vt 0.625000 0.500000
vt 0.375000 0.750000
vt 0.625000 0.750000
vt 0.375000 1.000000
vt 0.625000 1.000000
vt 0.875000 0.000000
vt 0.875000 0.250000
vt 0.125000 0.000000
vt 0.125000 0.250000
vt 0.375000 0.000000
vt 0.377267 0.000000
vt 0.377267 0.250000
vt 0.375000 0.250000
vt 0.375000 0.250000
vt 0.377267 0.250000
vt 0.377267 0.500000
vt 0.375000 0.500000
vt 0.375000 0.500000
vt 0.377267 0.500000
vt 0.377267 0.750000
vt 0.375000 0.750000
vt 0.375000 0.750000
vt 0.377267 0.750000
vt 0.377267 1.000000
vt 0.375000 1.000000
vt 0.625000 0.000000
vt 0.875000 0.000000
vt 0.875000 0.250000
vt 0.625000 0.250000
vt 0.125000 0.000000
vt 0.125000 0.250000
vt 0.541667 0.500000
vt 0.622565 0.500000
vt 0.622565 0.750000
vt 0.541667 0.750000
vt 0.541667 1.000000
vt 0.622565 1.000000
vt 0.541667 0.250000
vt 0.541667 0.000000
vt 0.622565 0.000000
vt 0.622565 0.250000
vt 0.458333 0.500000
vt 0.458333 0.750000
vt 0.458333 1.000000
vt 0.458333 0.250000
vt 0.458333 0.000000
vt 0.377267 1.000000
vt 0.622565 0.500000
vt 0.622565 0.250000
vt 0.625000 0.250000
vt 0.625000 0.500000
vt 0.625000 0.500000
vt 0.625000 0.750000
vt 0.622565 1.000000
vt 0.622565 0.750000
vt 0.625000 0.750000
vt 0.625000 1.000000
vt 0.375000 1.000000
vt 0.625000 1.000000
vt 0.375000 0.000000
vt 0.625000 0.000000
vt 0.625000 0.250000
vt 0.375000 0.250000
vt 0.625000 0.500000
vt 0.375000 0.500000
vt 0.625000 0.750000
vt 0.375000 0.750000
vt 0.625000 1.000000
vt 0.375000 1.000000
vt 0.875000 0.000000
vt 0.875000 0.250000
vt 0.125000 0.000000
vt 0.125000 0.250000
vn 0.000000 0.352036 0.935987
vn 0.000000 0.352036 0.935987
vn 0.000000 0.352036 0.935987
vn 0.000000 0.352036 0.935987
vn 0.000000 0.950527 -0.310643
vn 0.000000 0.950527 -0.310643
vn 0.000000 0.950527 -0.310643
vn 0.000000 0.950527 -0.310643
vn 0.000000 -0.268652 -0.963237
vn 0.000000 -0.268652 -0.963237
vn 0.000000 -0.268652 -0.963237
vn 0.000000 -0.268652 -0.963237
vn 0.000000 -0.950527 0.310643
vn 0.000000 -0.950527 0.310643
vn 0.000000 -0.950527 0.310643
vn 0.000000 -0.950527 0.310643
vn 0.999785 0.019698 -0.006438
vn 0.999785 0.019698 -0.006438
vn 0.999785 0.019698 -0.006438
vn 0.999785 0.019698 -0.006438
vn -0.999785 0.019699 -0.006438
vn -0.999785 0.019699 -0.006438
vn -0.999785 0.019699 -0.006438
vn -0.999785 0.019699 -0.006438
vn 0.000000 0.000000 1.000000
vn 0.000000 0.000000 1.000000
vn 0.000000 0.000000 1.000000
vn 0.000000 0.000000 1.000000
vn -0.001355 0.999407 -0.034404
vn -0.001355 0.999407 -0.034404
vn -0.001355 0.999407 -0.034404
vn -0.001355 0.999407 -0.034404
vn -0.078538 0.000000 -0.996911
vn -0.078534 0.000000 -0.996911
vn -0.078534 0.000000 -0.996911
vn -0.078538 0.000000 -0.996911
vn -0.001355 -0.999407 -0.034404
vn -0.001355 -0.999407 -0.034404
vn -0.001355 -0.999407 -0.034404
vn -0.001355 -0.999407 -0.034404
vn 1.000000 0.000000 0.000000
vn 1.000000 0.000000 0.000000
vn 1.000000 0.000000 0.000000
vn 1.000000 0.000000 0.000000
vn -1.000000 0.000000 0.000000
vn -1.000000 0.000000 0.000000
vn -1.000000 0.000000 0.000000
vn -1.000000 0.000000 0.000000
vn 0.038776 0.000000 -0.999248
vn 0.078534 0.000000 -0.996911
vn 0.078534 0.000000 -0.996911
vn 0.038776 0.000000 -0.999248
vn 0.000577 -0.999558 -0.029723
vn 0.000561 -0.999559 -0.029690
vn 0.001226 -0.999515 -0.031119
vn 0.001226 -0.999515 -0.031119
vn 0.000000 0.000000 1.000000
vn 0.000000 0.000000 1.000000
vn 0.000000 0.000000 1.000000
vn 0.000000 0.000000 1.000000
vn 0.000561 0.999559 -0.029690
vn 0.000577 0.999558 -0.029723
vn 0.001226 0.999515 -0.031119
vn 0.001226 0.999515 -0.031119
vn -0.038816 0.000000 -0.999246
vn -0.038816 0.000000 -0.999246
vn -0.000577 -0.999558 -0.029727
vn -0.000562 -0.999559 -0.029694
vn 0.000000 0.000000 1.000000
vn 0.000000 0.000000 1.000000
vn -0.000562 0.999559 -0.029694
vn -0.000577 0.999558 -0.029727
vn -0.001226 -0.999515 -0.031125
vn -0.001226 -0.999515 -0.031125
vn -0.001226 0.999515 -0.031125
vn -0.001226 0.999515 -0.031125
vn 0.001355 0.999407 -0.034397
vn 0.001355 0.999407 -0.034397
vn 0.001355 0.999407 -0.034397
vn 0.001355 0.999407 -0.034397
vn 0.078535 0.000000 -0.996911
vn 0.078535 0.000000 -0.996911
vn 0.001355 -0.999407 -0.034397
vn 0.001355 -0.999407 -0.034397
vn 0.001355 -0.999407 -0.034397
vn 0.001355 -0.999407 -0.034397
vn 0.000000 0.000000 1.000000
vn 0.000000 0.000000 1.000000
vn -0.078539 0.000000 -0.996911
vn -0.078539 0.000000 -0.996911
vn -0.078539 0.000000 -0.996911
vn -0.078539 0.000000 -0.996911
vn 1.000000 0.000000 0.000000
vn 1.000000 0.000000 0.000000
vn 1.000000 0.000000 0.000000
vn 1.000000 0.000000 0.000000
vn 0.000000 0.000000 1.000000
vn 0.000000 0.000000 1.000000
vn 0.000000 0.000000 1.000000
vn 0.000000 0.000000 1.000000
vn -1.000000 0.000000 0.000000
vn -1.000000 0.000000 0.000000
vn -1.000000 0.000000 0.000000
vn -1.000000 0.000000 0.000000
vn -1.000000 0.000000 0.000000
vn -1.000000 0.000000 0.000000
vn -1.000000 0.000000 0.000000
vn -1.000000 0.000000 0.000000
vn 0.078536 0.000000 -0.996911
vn 0.078536 0.000000 -0.996911
vn 0.078536 0.000000 -0.996911
vn 0.078536 0.000000 -0.996911
vn 1.000000 0.000000 0.000000
vn 1.000000 0.000000 0.000000
vn 1.000000 0.000000 0.000000
vn 1.000000 0.000000 0.000000
vn 0.000000 0.000000 1.000000
vn 0.000000 0.000000 1.000000
vn 0.000000 0.000000 1.000000
vn 0.000000 0.000000 1.000000
vn 0.000000 0.000000 1.000000
vn 0.000000 0.000000 1.000000
vn 0.000000 0.000000 1.000000
vn 0.000000 0.000000 1.000000
vn 1.000000 0.000000 0.000000
vn 1.000000 0.000000 0.000000
vn 1.000000 0.000000 0.000000
vn 1.000000 0.000000 0.000000
vn -0.078538 0.000000 -0.996911
vn -0.078538 0.000000 -0.996911
vn -0.078538 0.000000 -0.996911
vn -0.078538 0.000000 -0.996911
vn -1.000000 0.000000 0.000000
vn -1.000000 0.000000 0.000000
vn -1.000000 0.000000 0.000000
vn -1.000000 0.000000 0.000000
vn -1.000000 0.000000 0.000000
vn -1.000000 0.000000 0.000000
vn -1.000000 0.000000 0.000000
vn -1.000000 0.000000 0.000000
vn 0.000000 0.000000 1.000000
vn 0.000000 0.000000 1.000000
vn 0.000000 0.000000 1.000000
vn 0.000000 0.000000 1.000000
vn 1.000000 0.000000 0.000000
vn 1.000000 0.000000 0.000000
vn 1.000000 0.000000 0.000000
vn 1.000000 0.000000 0.000000
vn 0.078535 0.000000 -0.996911
vn 0.078535 0.000000 -0.996911
vn 0.078535 0.000000 -0.996911
vn 0.078535 0.000000 -0.996911
vn 0.000000 0.352036 0.935987
vn 0.000000 0.352036 0.935987
vn 0.000000 0.352036 0.935986
vn 0.000000 0.352036 0.935986
vn 0.000000 0.950526 -0.310644
vn 0.000000 0.950526 -0.310644
vn 0.000000 0.950526 -0.310644
vn 0.000000 0.950526 -0.310644
vn 0.000000 -0.268652 -0.963237
vn 0.000000 -0.268652 -0.963237
vn 0.000000 -0.268652 -0.963237
vn 0.000000 -0.268652 -0.963237
vn 0.000000 -0.950527 0.310644
vn 0.000000 -0.950527 0.310644
vn 0.000000 -0.950527 0.310644
vn 0.000000 -0.950527 0.310644
vn 0.999785 0.019698 -0.006438
vn 0.999785 0.019698 -0.006438
vn 0.999785 0.019698 -0.006438
vn 0.999785 0.019698 -0.006438
vn -0.999785 0.019698 -0.006438
vn -0.999785 0.019698 -0.006438
vn -0.999785 0.019698 -0.006438
vn -0.999785 0.019698 -0.006438
s off
g pCube23
usemtl blinn9SG
f 1/1/1 2/2/2 4/4/3 3/3/4
f 3/3/5 4/4/6 6/6/7 5/5/8
f 5/5/9 6/6/10 8/8/11 7/7/12
f 7/7/13 8/8/14 2/10/15 1/9/16
f 2/2/17 8/11/18 6/12/19 4/4/20
f 7/13/21 1/1/22 3/3/23 5/14/24
s 1
f 9/15/25 27/16/26 28/17/27 11/18/28
s off
f 41/19/29 42/20/30 43/21/31 44/22/32
s 2
f 13/23/33 25/24/34 26/25/35 15/26/36
s off
f 33/27/37 34/28/38 35/29/39 36/30/40
f 10/31/41 16/32/42 14/33/43 12/34/44
f 15/35/45 9/15/46 11/18/47 13/36/48
s 2
f 17/37/49 30/38/50 31/39/51 18/40/52
s 4
f 19/41/53 18/40/54 31/39/55 32/42/56
s 1
f 20/43/57 19/44/58 32/45/59 29/46/60
s 6
f 17/37/61 20/43/62 29/46/63 30/38/64
s 2
f 21/47/65 17/37/49 18/40/52 22/48/66
s 4
f 23/49/67 22/48/68 18/40/54 19/41/53
s 1
f 24/50/69 23/51/70 19/44/58 20/43/57
s 6
f 21/47/71 24/50/72 20/43/62 17/37/61
s 2
f 25/24/34 21/47/65 22/48/66 26/25/35
s 4
f 27/52/73 26/25/74 22/48/68 23/49/67
s 1
f 28/17/27 27/16/26 23/51/70 24/50/69
s 6
f 25/24/75 28/17/76 24/50/72 21/47/71
s off
f 46/53/77 45/54/78 47/55/79 48/56/80
s 2
f 31/39/51 30/38/50 14/57/81 16/58/82
s off
f 38/59/83 37/60/84 39/61/85 40/62/86
s 1
f 29/46/60 32/45/59 10/31/87 12/34/88
s off
f 15/26/89 26/25/90 34/28/91 33/27/92
f 26/25/93 27/52/94 35/29/95 34/28/96
f 27/52/97 9/63/98 36/30/99 35/29/100
f 9/63/101 15/26/102 33/27/103 36/30/104
f 32/42/105 31/39/106 37/60/107 38/59/108
f 31/39/109 16/58/110 39/61/111 37/60/112
f 16/58/113 10/64/114 40/62/115 39/61/116
f 10/64/117 32/42/118 38/59/119 40/62/120
f 11/18/121 28/17/122 42/20/123 41/19/124
f 28/17/125 25/24/126 43/21/127 42/20/128
f 25/24/129 13/23/130 44/22/131 43/21/132
f 13/23/133 11/18/134 41/19/135 44/22/136
f 30/38/137 29/46/138 45/54/139 46/53/140
f 29/46/141 12/34/142 47/55/143 45/54/144
f 12/34/145 14/57/146 48/56/147 47/55/148
f 14/57/149 30/38/150 46/53/151 48/56/152
f 49/65/153 50/66/154 52/67/155 51/68/156
f 51/68/157 52/67/158 54/69/159 53/70/160
f 53/70/161 54/69/162 56/71/163 55/72/164
f 55/72/165 56/71/166 50/73/167 49/74/168
f 50/66/169 56/75/170 54/76/171 52/67/172
f 55/77/173 49/65/174 51/68/175 53/78/176
