# This file uses centimeters as units for non-parametric coordinates.

mtllib antenna.mtl
g default
v 0.000000 -0.066377 0.286601
v 0.000000 -0.146746 -0.196123
v 0.073717 -0.147079 -0.193196
v 0.073717 -0.066328 0.287003
v 0.000000 -0.016522 0.196653
v 0.000000 -0.016989 -0.196123
v 0.019309 -0.016999 -0.193196
v 0.019309 -0.016522 0.197055
v 0.000000 -0.026227 0.214163
v 0.029900 -0.026218 0.214565
v 0.029900 -0.042321 -0.193196
v 0.000000 -0.042248 -0.196123
v 0.000000 -0.135481 -0.195806
v 0.057772 -0.135741 -0.193512
v 0.000000 -0.053586 -0.195806
v 0.023433 -0.053643 -0.193512
v 0.000000 -0.068974 -0.242877
v 0.021115 -0.069764 -0.241849
v 0.018457 -0.030249 -0.218081
v -0.000000 0.202988 -0.420925
v 0.021115 0.202199 -0.419897
v 0.018457 0.241714 -0.396128
v -0.073717 -0.147079 -0.193196
v -0.073717 -0.066328 0.287003
v -0.019309 -0.016999 -0.193196
v -0.019309 -0.016522 0.197055
v -0.029900 -0.026218 0.214565
v -0.029900 -0.042321 -0.193196
v -0.057772 -0.135741 -0.193512
v -0.023433 -0.053643 -0.193512
v -0.021115 -0.069764 -0.241849
v -0.018457 -0.030249 -0.218081
v -0.021115 0.202199 -0.419897
v 0.127126 -0.242405 -0.193196
v 0.000000 -0.242073 -0.196123
v 0.000000 -0.161704 0.420523
v 0.127126 -0.161655 0.420925
v 0.000000 0.242405 -0.397216
v 0.000000 -0.029557 -0.219168
v -0.018457 0.241714 -0.396128
v -0.127126 -0.242405 -0.193196
v -0.127126 -0.161655 0.420925
vt 0.772702 0.383790
vt 0.800000 0.381083
vt 0.800000 0.935415
vt 0.772686 0.935982
vt 0.620102 0.064018
vt 0.800000 0.064461
vt 0.800000 0.199302
vt 0.695637 0.198867
vt 0.350003 0.064535
vt 0.470166 0.069120
vt 0.411128 0.210338
vt 0.349999 0.210788
vt 0.670938 0.582281
vt 0.576207 0.605890
vt 0.757539 0.347198
vt 0.800000 0.346789
vt 0.349999 0.284190
vt 0.376747 0.283632
vt 0.368300 0.301550
vt 0.350001 0.301906
vt 0.478334 0.629688
vt 0.454784 0.635463
vt 0.594552 0.777857
vt 0.594495 0.803665
vt 0.538782 0.803629
vt 0.537889 0.781322
vt 0.800000 0.215241
vt 0.718190 0.214915
vt 0.766686 0.331081
vt 0.800000 0.330993
vt 0.032928 0.994435
vt 0.022556 0.925143
vt 0.119912 0.904024
vt 0.120540 0.929963
vt 0.102499 0.799621
vt 0.097518 0.777184
vt 0.141179 0.778743
vt 0.142187 0.801995
vt 0.016396 0.705566
vt 0.122891 0.726005
vt 0.515697 0.901708
vt 0.514546 0.927409
vt 0.513985 0.730986
vt 0.827298 0.383790
vt 0.827314 0.935982
vt 0.979898 0.064018
vt 0.904363 0.198867
vt 0.288871 0.210336
vt 0.229834 0.069116
vt 0.123794 0.605893
vt 0.029062 0.582285
vt 0.842461 0.347198
vt 0.331700 0.301551
vt 0.323252 0.283632
vt 0.245217 0.635465
vt 0.221667 0.629690
vt 0.594515 0.829473
vt 0.537838 0.825932
vt 0.881810 0.214915
vt 0.833314 0.331080
vt 0.005448 0.860984
vt 0.116166 0.878052
vt 0.139871 0.825234
vt 0.098956 0.820985
vt 0.513871 0.876047
vn 0.495130 0.866708 -0.060521
vn -0.000000 0.995798 -0.091580
vn -0.000000 0.999607 0.028034
vn 0.601851 0.798555 0.009241
vn 0.878797 0.445417 -0.171232
vn 0.000001 0.008172 -0.999967
vn 0.000001 0.009611 -0.999954
vn 0.868946 0.459037 -0.184980
vn 0.000000 0.814430 0.580261
vn 0.745518 0.651919 0.138581
vn 0.817285 0.574536 0.044199
vn 0.000000 0.827651 0.561243
vn 0.863898 0.498312 -0.073251
vn -0.000000 0.007692 -0.999970
vn -0.000000 0.874141 0.485672
vn 0.831011 0.556221 -0.006230
vn 0.938970 -0.151761 -0.308714
vn 0.000004 -0.446152 -0.894957
vn -0.031614 0.782061 0.622399
vn 0.825737 0.368109 0.427380
vn -0.000001 -0.481775 -0.876295
vn 0.226838 -0.180171 -0.957122
vn 0.829858 0.362284 -0.424366
vn 0.000004 0.922241 0.386617
vn 0.000002 -0.557415 -0.830234
vn 0.798014 -0.272957 -0.537278
vn 0.927969 0.243382 0.282202
vn -0.000002 0.564437 0.825476
vn -0.495130 0.866708 -0.060522
vn -0.601851 0.798555 0.009241
vn -0.878796 0.445417 -0.171232
vn -0.868946 0.459037 -0.184980
vn -0.817285 0.574536 0.044200
vn -0.745518 0.651919 0.138582
vn -0.863898 0.498312 -0.073251
vn -0.831011 0.556221 -0.006230
vn -0.938969 -0.151762 -0.308715
vn -0.825737 0.368109 0.427381
vn -0.226835 -0.180171 -0.957123
vn -0.829856 0.362286 -0.424368
vn -0.798013 -0.272958 -0.537279
vn -0.927969 0.243383 0.282203
vn 0.028734 0.547510 0.836306
s 1
g polySurface102 polySurface25
usemtl blinn9SG
f 7/1/1 6/2/2 5/3/3 8/4/4
f 34/5/5 35/6/6 2/7/7 3/8/8
f 36/9/9 37/10/10 4/11/11 1/12/12
f 37/10/10 34/13/5 3/14/8 4/11/11
f 11/15/13 12/16/14 6/2/2 7/1/1
f 9/17/15 10/18/16 8/19/4 5/20/3
f 10/18/16 11/21/13 7/22/1 8/19/4
f 1/12/12 4/11/11 10/18/16 9/17/15
f 4/11/11 3/14/8 11/21/13 10/18/16
f 21/23/17 20/24/18 38/25/19 22/26/20
f 3/8/8 2/7/7 13/27/21 14/28/22
f 12/16/14 11/15/13 16/29/23 15/30/24
f 11/15/13 3/8/8 14/28/22 16/29/23
f 14/31/22 13/32/21 17/33/25 18/34/26
f 15/35/24 16/36/23 19/37/27 39/38/28
f 16/36/23 14/39/22 18/40/26 19/37/27
f 18/34/26 17/33/25 20/41/18 21/42/17
f 39/38/28 19/37/27 22/26/20 38/25/19
f 19/37/27 18/40/26 21/43/17 22/26/20
f 25/44/29 26/45/30 5/3/3 6/2/2
f 41/46/31 23/47/32 2/7/7 35/6/6
f 36/9/9 1/12/12 24/48/33 42/49/34
f 42/49/34 24/48/33 23/50/32 41/51/31
f 28/52/35 25/44/29 6/2/2 12/16/14
f 9/17/15 5/20/3 26/53/30 27/54/36
f 27/54/36 26/53/30 25/55/29 28/56/35
f 1/12/12 9/17/15 27/54/36 24/48/33
f 24/48/33 27/54/36 28/56/35 23/50/32
f 33/57/37 40/58/38 38/25/19 20/24/18
f 23/47/32 29/59/39 13/27/21 2/7/7
f 12/16/14 15/30/24 30/60/40 28/52/35
f 28/52/35 30/60/40 29/59/39 23/47/32
f 29/61/39 31/62/41 17/33/25 13/32/21
f 15/35/24 39/38/28 32/63/42 30/64/40
f 30/64/40 32/63/42 31/62/41 29/61/39
f 31/62/41 33/65/37 20/41/18 17/33/25
f 39/38/28 38/25/43 40/58/38 32/63/42
f 32/63/42 40/58/38 33/65/37 31/62/41
