# This file uses centimeters as units for non-parametric coordinates.

mtllib base_screen.mtl
g default
v 0.185606 -0.582104 1.051114
v 0.000000 -0.582104 1.051114
v 0.000000 -0.343677 0.749938
v 0.000000 0.270264 -0.413477
v 0.182497 -0.343677 0.749939
v 0.160577 0.265322 -0.413477
v -0.185605 -0.582104 1.051114
v -0.182497 -0.343677 0.749939
v -0.160576 0.265322 -0.413477
v 2.411093 -0.582105 1.051119
v 2.310901 -0.323040 0.713606
v 0.143606 0.579070 -1.045658
v 0.000000 0.579070 -1.045657
v 2.099370 0.274378 -0.411120
v 1.987606 0.582105 -1.051119
v -2.310900 -0.323040 0.713606
v -2.411092 -0.582105 1.051119
v -0.143605 0.579070 -1.045658
v -1.987605 0.582105 -1.051119
v -2.099369 0.274378 -0.411120
vt 0.037561 0.153233
vt 0.012982 0.154251
vt 0.005486 0.004939
vt 0.033244 0.010269
vt 0.038175 0.165478
vt 0.013608 0.166737
vt 0.172902 0.149394
vt 0.173289 0.158992
vt 0.126291 0.161080
vt 0.125641 0.150335
vt 0.119362 0.020033
vt 0.167722 0.023969
vt 0.037561 0.153233
vt 0.033244 0.010269
vt 0.005486 0.004939
vt 0.012982 0.154251
vt 0.013608 0.166737
vt 0.038175 0.165478
vt 0.172902 0.149394
vt 0.125641 0.150335
vt 0.126291 0.161080
vt 0.173289 0.158992
vt 0.119362 0.020033
vt 0.167722 0.023969
vn -0.000697 0.862924 0.505333
vn 0.001285 0.788656 0.614833
vn 0.001386 0.789020 0.614366
vn -0.001399 0.859057 0.511878
vn 0.009737 0.863744 0.503837
vn -0.000001 0.784047 0.620702
vn -0.001212 0.898326 0.439328
vn 0.014576 0.897125 0.441537
vn 0.013346 0.889132 0.457456
vn -0.001309 0.889321 0.457281
vn -0.002546 0.888647 0.458585
vn -0.002511 0.898415 0.439141
vn 0.000697 0.862924 0.505333
vn 0.001399 0.859057 0.511878
vn -0.001386 0.789019 0.614367
vn -0.001285 0.788656 0.614833
vn 0.000001 0.784049 0.620699
vn -0.009737 0.863745 0.503835
vn 0.001212 0.898326 0.439328
vn 0.001309 0.889321 0.457281
vn -0.013346 0.889132 0.457455
vn -0.014576 0.897125 0.441537
vn 0.002546 0.888647 0.458584
vn 0.002511 0.898415 0.439141
s 1
g polySurface83 polySurface82
usemtl blinn2SG
f 5/1/1 1/2/2 10/3/3 11/4/4
f 5/1/1 3/5/5 2/6/6 1/2/2
f 12/7/7 13/8/8 4/9/9 6/10/10
f 14/11/11 15/12/12 12/7/7 6/10/10
f 5/1/1 6/10/10 4/9/9 3/5/5
f 14/11/11 6/10/10 5/1/1 11/4/4
s 2
f 8/13/13 16/14/14 17/15/15 7/16/16
f 8/13/13 7/16/16 2/17/17 3/18/18
f 18/19/19 9/20/20 4/21/21 13/22/22
f 20/23/23 9/20/20 18/19/19 19/24/24
f 8/13/13 3/18/18 4/21/21 9/20/20
f 20/23/23 16/14/14 8/13/13 9/20/20
