# This file uses centimeters as units for non-parametric coordinates.

mtllib base_backscreen.mtl
g default
v -1.745048 0.281266 0.375104
v -1.745048 -0.088777 -0.055629
v -1.745034 -0.281266 -0.375104
v 1.745048 0.281266 0.375104
v 1.745048 -0.088777 -0.055629
v 1.745034 -0.281266 -0.375104
vt 0.837377 0.962989
vt 0.837081 0.985441
vt 0.834741 0.948851
vt 0.837377 0.962989
vt 0.837081 0.985441
vt 0.834741 0.948851
vn 0.000000 0.800063 -0.599916
vn 0.000000 0.800063 -0.599916
vn 0.000000 0.758523 -0.651646
vn 0.000000 0.758523 -0.651646
vn 0.000000 0.856541 -0.516079
vn 0.000000 0.856541 -0.516079
s 1
g group8
usemtl blinn2SG
f 5/4/1 2/1/2 1/2/3 4/5/4
f 6/6/5 3/3/6 2/1/2 5/4/1
