# This file uses centimeters as units for non-parametric coordinates.

mtllib gear1.mtl
g default
v 0.275671 -0.074446 0.000000
v 0.262178 -0.074446 -0.085187
v 0.223023 -0.074446 -0.162035
v 0.162035 -0.074446 -0.223022
v 0.085187 -0.074446 -0.262178
v 0.000000 -0.074446 -0.275671
v -0.085187 -0.074446 -0.262178
v -0.162035 -0.074446 -0.223022
v -0.223023 -0.074446 -0.162035
v -0.262178 -0.074446 -0.085187
v -0.275671 -0.074446 0.000000
v -0.262178 -0.074446 0.085187
v -0.223023 -0.074446 0.162035
v -0.162035 -0.074446 0.223022
v -0.085187 -0.074446 0.262178
v 0.000000 -0.074446 0.275671
v 0.085187 -0.074446 0.262178
v 0.162035 -0.074446 0.223022
v 0.223023 -0.074446 0.162035
v 0.262179 -0.074446 0.085187
v 0.275671 0.074446 0.000000
v 0.262178 0.074446 -0.085187
v 0.223023 0.074446 -0.162035
v 0.162035 0.074446 -0.223022
v 0.085187 0.074446 -0.262178
v 0.000000 0.074446 -0.275671
v -0.085187 0.074446 -0.262178
v -0.162035 0.074446 -0.223022
v -0.223023 0.074446 -0.162035
v -0.262178 0.074446 -0.085187
v -0.275671 0.074446 0.000000
v -0.262178 0.074446 0.085187
v -0.223023 0.074446 0.162035
v -0.162035 0.074446 0.223022
v -0.085187 0.074446 0.262178
v 0.000000 0.074446 0.275671
v 0.085187 0.074446 0.262178
v 0.162035 0.074446 0.223022
v 0.223023 0.074446 0.162035
v 0.262179 0.074446 0.085187
v 0.523219 0.074446 0.000000
v 0.497611 0.074446 -0.161683
v 0.423293 0.074446 -0.307540
v 0.307540 0.074446 -0.423293
v 0.161683 0.074446 -0.497611
v 0.000000 0.074446 -0.523219
v -0.161683 0.074446 -0.497611
v -0.307540 0.074446 -0.423293
v -0.423293 0.074446 -0.307540
v -0.497611 0.074446 -0.161683
v -0.523219 0.074446 0.000000
v -0.497611 0.074446 0.161683
v -0.423293 0.074446 0.307540
v -0.307540 0.074446 0.423293
v -0.161683 0.074446 0.497611
v 0.000000 0.074446 0.523219
v 0.161683 0.074446 0.497611
v 0.307540 0.074446 0.423293
v 0.423293 0.074446 0.307540
v 0.497611 0.074446 0.161683
v 0.523219 -0.074446 0.000000
v 0.497611 -0.074446 -0.161683
v 0.423293 -0.074446 -0.307540
v 0.307540 -0.074446 -0.423293
v 0.161683 -0.074446 -0.497611
v 0.000000 -0.074446 -0.523219
v -0.161683 -0.074446 -0.497611
v -0.307540 -0.074446 -0.423293
v -0.423293 -0.074446 -0.307540
v -0.497611 -0.074446 -0.161683
v -0.523219 -0.074446 0.000000
v -0.497611 -0.074446 0.161683
v -0.423293 -0.074446 0.307540
v -0.307540 -0.074446 0.423293
v -0.161683 -0.074446 0.497611
v 0.000000 -0.074446 0.523219
v 0.161683 -0.074446 0.497611
v 0.307540 -0.074446 0.423293
v 0.423293 -0.074446 0.307540
v 0.497611 -0.074446 0.161683
v 0.592083 0.073307 -0.192379
v 0.503655 0.073307 -0.365927
v 0.592083 -0.073307 -0.192379
v 0.503655 -0.073307 -0.365927
v 0.365927 0.073307 -0.503656
v 0.192379 0.073307 -0.592083
v 0.365927 -0.073307 -0.503656
v 0.192379 -0.073307 -0.592083
v 0.000000 0.073307 -0.622553
v -0.192379 0.073307 -0.592083
v 0.000000 -0.073307 -0.622553
v -0.192379 -0.073307 -0.592083
v -0.365927 0.073307 -0.503656
v -0.503655 0.073307 -0.365928
v -0.365927 -0.073307 -0.503656
v -0.503655 -0.073307 -0.365928
v -0.592083 0.073307 -0.192379
v -0.622553 0.073307 0.000000
v -0.592083 -0.073307 -0.192379
v -0.622553 -0.073307 0.000000
v -0.592083 0.073307 0.192379
v -0.503656 0.073307 0.365927
v -0.592083 -0.073307 0.192379
v -0.503656 -0.073307 0.365927
v -0.365927 0.073307 0.503656
v -0.192379 0.073307 0.592083
v -0.365927 -0.073307 0.503656
v -0.192379 -0.073307 0.592083
v 0.000000 0.073307 0.622553
v 0.192379 0.073307 0.592083
v 0.000000 -0.073307 0.622553
v 0.192379 -0.073307 0.592083
v 0.365927 0.073307 0.503656
v 0.503656 0.073307 0.365928
v 0.365927 -0.073307 0.503656
v 0.503656 -0.073307 0.365928
v 0.592083 0.073307 0.192379
v 0.622553 0.073307 0.000000
v 0.592083 -0.073307 0.192379
v 0.622553 -0.073307 0.000000
vt 0.000000 1.000000
vt 0.050000 1.000000
vt 0.100000 1.000000
vt 0.150000 1.000000
vt 0.200000 1.000000
vt 0.250000 1.000000
vt 0.300000 1.000000
vt 0.350000 1.000000
vt 0.400000 1.000000
vt 0.450000 1.000000
vt 0.500000 1.000000
vt 0.550000 1.000000
vt 0.600000 1.000000
vt 0.650000 1.000000
vt 0.700000 1.000000
vt 0.750000 1.000000
vt 0.800000 1.000000
vt 0.850000 1.000000
vt 0.900000 1.000000
vt 0.950000 1.000000
vt 1.000000 1.000000
vt 0.000000 0.750000
vt 0.050000 0.750000
vt 0.100000 0.750000
vt 0.150000 0.750000
vt 0.200000 0.750000
vt 0.250000 0.750000
vt 0.300000 0.750000
vt 0.350000 0.750000
vt 0.400000 0.750000
vt 0.450000 0.750000
vt 0.500000 0.750000
vt 0.550000 0.750000
vt 0.600000 0.750000
vt 0.650000 0.750000
vt 0.700000 0.750000
vt 0.750000 0.750000
vt 0.800000 0.750000
vt 0.850000 0.750000
vt 0.900000 0.750000
vt 0.950000 0.750000
vt 1.000000 0.750000
vt 0.000000 0.500000
vt 0.050000 0.500000
vt 0.100000 0.500000
vt 0.150000 0.500000
vt 0.200000 0.500000
vt 0.250000 0.500000
vt 0.300000 0.500000
vt 0.350000 0.500000
vt 0.400000 0.500000
vt 0.450000 0.500000
vt 0.500000 0.500000
vt 0.550000 0.500000
vt 0.600000 0.500000
vt 0.650000 0.500000
vt 0.700000 0.500000
vt 0.750000 0.500000
vt 0.800000 0.500000
vt 0.850000 0.500000
vt 0.900000 0.500000
vt 0.950000 0.500000
vt 1.000000 0.500000
vt 0.000000 0.250000
vt 0.050000 0.250000
vt 0.100000 0.250000
vt 0.150000 0.250000
vt 0.200000 0.250000
vt 0.250000 0.250000
vt 0.300000 0.250000
vt 0.350000 0.250000
vt 0.400000 0.250000
vt 0.450000 0.250000
vt 0.500000 0.250000
vt 0.550000 0.250000
vt 0.600000 0.250000
vt 0.650000 0.250000
vt 0.700000 0.250000
vt 0.750000 0.250000
vt 0.800000 0.250000
vt 0.850000 0.250000
vt 0.900000 0.250000
vt 0.950000 0.250000
vt 1.000000 0.250000
vt 0.000000 0.000000
vt 0.050000 0.000000
vt 0.100000 0.000000
vt 0.150000 0.000000
vt 0.200000 0.000000
vt 0.250000 0.000000
vt 0.300000 0.000000
vt 0.350000 0.000000
vt 0.400000 0.000000
vt 0.450000 0.000000
vt 0.500000 0.000000
vt 0.550000 0.000000
vt 0.600000 0.000000
vt 0.650000 0.000000
vt 0.700000 0.000000
vt 0.750000 0.000000
vt 0.800000 0.000000
vt 0.850000 0.000000
vt 0.900000 0.000000
vt 0.950000 0.000000
vt 1.000000 0.000000
vt 0.100000 0.500000
vt 0.050000 0.500000
vt 0.050000 0.250000
vt 0.100000 0.250000
vt 0.200000 0.500000
vt 0.150000 0.500000
vt 0.150000 0.250000
vt 0.200000 0.250000
vt 0.300000 0.500000
vt 0.250000 0.500000
vt 0.250000 0.250000
vt 0.300000 0.250000
vt 0.400000 0.500000
vt 0.350000 0.500000
vt 0.350000 0.250000
vt 0.400000 0.250000
vt 0.500000 0.500000
vt 0.450000 0.500000
vt 0.450000 0.250000
vt 0.500000 0.250000
vt 0.600000 0.500000
vt 0.550000 0.500000
vt 0.550000 0.250000
vt 0.600000 0.250000
vt 0.700000 0.500000
vt 0.650000 0.500000
vt 0.650000 0.250000
vt 0.700000 0.250000
vt 0.800000 0.500000
vt 0.750000 0.500000
vt 0.750000 0.250000
vt 0.800000 0.250000
vt 0.900000 0.500000
vt 0.850000 0.500000
vt 0.850000 0.250000
vt 0.900000 0.250000
vt 1.000000 0.500000
vt 0.950000 0.500000
vt 0.950000 0.250000
vt 1.000000 0.250000
vn -0.951057 0.000000 0.309016
vn -1.000000 0.000000 0.000005
vn -1.000000 0.000000 0.000005
vn -0.951057 0.000000 0.309016
vn -0.809018 0.000000 0.587784
vn -0.809018 0.000000 0.587784
vn -0.587785 0.000000 0.809017
vn -0.587785 0.000000 0.809017
vn -0.309018 0.000000 0.951056
vn -0.309018 0.000000 0.951056
vn 0.000000 0.000000 1.000000
vn 0.000000 0.000000 1.000000
vn 0.309018 0.000000 0.951056
vn 0.309018 0.000000 0.951056
vn 0.587785 0.000000 0.809017
vn 0.587785 0.000000 0.809017
vn 0.809018 0.000000 0.587784
vn 0.809018 0.000000 0.587784
vn 0.951057 0.000000 0.309016
vn 0.951057 0.000000 0.309016
vn 1.000000 0.000000 0.000000
vn 1.000000 0.000000 0.000000
vn 0.951057 0.000000 -0.309016
vn 0.951057 0.000000 -0.309016
vn 0.809018 0.000000 -0.587784
vn 0.809018 0.000000 -0.587784
vn 0.587785 0.000000 -0.809017
vn 0.587785 0.000000 -0.809017
vn 0.309018 0.000000 -0.951056
vn 0.309018 0.000000 -0.951056
vn 0.000000 0.000000 -1.000000
vn 0.000000 0.000000 -1.000000
vn -0.309018 0.000000 -0.951056
vn -0.309018 0.000000 -0.951056
vn -0.587785 0.000000 -0.809017
vn -0.587785 0.000000 -0.809017
vn -0.809016 0.000000 -0.587787
vn -0.809016 0.000000 -0.587787
vn -0.951057 0.000000 -0.309016
vn -0.951057 0.000000 -0.309016
vn 0.000000 1.000000 -0.000000
vn 0.000000 1.000000 0.000000
vn 0.000000 1.000000 0.000000
vn 0.000000 1.000000 -0.000000
vn 0.000000 1.000000 -0.000000
vn 0.000000 1.000000 -0.000000
vn 0.000000 1.000000 -0.000000
vn 0.000000 1.000000 -0.000000
vn 0.000000 1.000000 -0.000000
vn 0.000000 1.000000 -0.000000
vn 0.000000 1.000000 0.000000
vn 0.000000 1.000000 0.000000
vn 0.000000 1.000000 0.000000
vn 0.000000 1.000000 0.000000
vn 0.000000 1.000000 0.000000
vn 0.000000 1.000000 0.000000
vn 0.000000 1.000000 0.000000
vn 0.000000 1.000000 0.000000
vn 0.000000 1.000000 0.000000
vn 0.000000 1.000000 0.000000
vn 0.000000 1.000000 0.000000
vn 0.000000 1.000000 0.000000
vn 0.000000 1.000000 0.000000
vn 0.000000 1.000000 0.000000
vn 0.000000 1.000000 0.000000
vn 0.000000 1.000000 0.000000
vn 0.000000 1.000000 -0.000000
vn 0.000000 1.000000 0.000000
vn 0.000000 1.000000 0.000000
vn 0.000000 1.000000 0.000000
vn 0.000000 1.000000 0.000000
vn 0.000000 1.000000 0.000000
vn 0.000000 1.000000 0.000000
vn 0.000000 1.000000 0.000000
vn 0.000000 1.000000 0.000000
vn 0.000000 1.000000 0.000000
vn 0.000000 1.000000 0.000000
vn 0.000000 1.000000 0.000000
vn 0.000000 1.000000 0.000000
vn 0.000000 1.000000 0.000000
vn 0.987688 0.000000 -0.156436
vn 0.987688 0.000000 -0.156436
vn 0.987688 0.000000 -0.156436
vn 0.987688 0.000000 -0.156436
vn 0.891006 0.000000 -0.453992
vn 0.891006 0.000000 -0.453992
vn 0.891006 0.000000 -0.453992
vn 0.891006 0.000000 -0.453992
vn 0.707108 0.000000 -0.707106
vn 0.707108 0.000000 -0.707106
vn 0.707108 0.000000 -0.707106
vn 0.707108 0.000000 -0.707106
vn 0.453990 0.000000 -0.891007
vn 0.453990 0.000000 -0.891007
vn 0.453990 0.000000 -0.891007
vn 0.453990 0.000000 -0.891007
vn 0.156436 0.000000 -0.987688
vn 0.156436 0.000000 -0.987688
vn 0.156436 0.000000 -0.987688
vn 0.156436 0.000000 -0.987688
vn -0.156437 0.000000 -0.987688
vn -0.156437 0.000000 -0.987688
vn -0.156437 0.000000 -0.987688
vn -0.156437 0.000000 -0.987688
vn -0.453990 0.000000 -0.891007
vn -0.453990 0.000000 -0.891007
vn -0.453990 0.000000 -0.891007
vn -0.453990 0.000000 -0.891007
vn -0.707107 0.000000 -0.707107
vn -0.707107 0.000000 -0.707107
vn -0.707107 0.000000 -0.707107
vn -0.707107 0.000000 -0.707107
vn -0.891006 0.000000 -0.453991
vn -0.891006 0.000000 -0.453991
vn -0.891006 0.000000 -0.453991
vn -0.891006 0.000000 -0.453991
vn -0.987688 0.000000 -0.156437
vn -0.987688 0.000000 -0.156437
vn -0.987688 0.000000 -0.156437
vn -0.987688 0.000000 -0.156437
vn -0.987688 0.000000 0.156436
vn -0.987688 0.000000 0.156436
vn -0.987688 0.000000 0.156436
vn -0.987688 0.000000 0.156436
vn -0.891008 0.000000 0.453988
vn -0.891008 0.000000 0.453988
vn -0.891008 0.000000 0.453988
vn -0.891008 0.000000 0.453988
vn -0.707106 0.000000 0.707108
vn -0.707106 0.000000 0.707108
vn -0.707106 0.000000 0.707108
vn -0.707106 0.000000 0.707108
vn -0.453990 0.000000 0.891007
vn -0.453990 0.000000 0.891007
vn -0.453990 0.000000 0.891007
vn -0.453990 0.000000 0.891007
vn -0.156436 0.000000 0.987688
vn -0.156436 0.000000 0.987688
vn -0.156436 0.000000 0.987688
vn -0.156436 0.000000 0.987688
vn 0.156437 0.000000 0.987688
vn 0.156437 0.000000 0.987688
vn 0.156437 0.000000 0.987688
vn 0.156437 0.000000 0.987688
vn 0.453990 0.000000 0.891007
vn 0.453990 0.000000 0.891007
vn 0.453990 0.000000 0.891007
vn 0.453990 0.000000 0.891007
vn 0.707104 0.000000 0.707109
vn 0.707104 0.000000 0.707109
vn 0.707104 0.000000 0.707109
vn 0.707104 0.000000 0.707109
vn 0.891008 0.000000 0.453988
vn 0.891008 0.000000 0.453988
vn 0.891008 0.000000 0.453988
vn 0.891008 0.000000 0.453988
vn 0.987688 0.000000 0.156437
vn 0.987688 0.000000 0.156437
vn 0.987688 0.000000 0.156437
vn 0.987688 0.000000 0.156437
vn 0.000000 -1.000000 -0.000000
vn 0.000000 -1.000000 0.000000
vn 0.000000 -1.000000 0.000000
vn 0.000000 -1.000000 -0.000000
vn 0.000000 -1.000000 -0.000000
vn 0.000000 -1.000000 -0.000000
vn 0.000000 -1.000000 0.000000
vn 0.000000 -1.000000 0.000000
vn 0.000000 -1.000000 0.000000
vn 0.000000 -1.000000 0.000000
vn 0.000000 -1.000000 0.000000
vn 0.000000 -1.000000 0.000000
vn 0.000000 -1.000000 0.000000
vn 0.000000 -1.000000 0.000000
vn 0.000000 -1.000000 0.000000
vn 0.000000 -1.000000 0.000000
vn 0.000000 -1.000000 -0.000000
vn 0.000000 -1.000000 -0.000000
vn 0.000000 -1.000000 -0.000000
vn 0.000000 -1.000000 -0.000000
vn 0.000000 -1.000000 0.000000
vn 0.000000 -1.000000 0.000000
vn 0.000000 -1.000000 0.000000
vn 0.000000 -1.000000 0.000000
vn 0.000000 -1.000000 0.000000
vn 0.000000 -1.000000 0.000000
vn 0.000000 -1.000000 0.000000
vn 0.000000 -1.000000 0.000000
vn 0.000000 -1.000000 0.000000
vn 0.000000 -1.000000 0.000000
vn 0.000000 -1.000000 0.000000
vn 0.000000 -1.000000 0.000000
vn 0.000000 -1.000000 -0.000000
vn 0.000000 -1.000000 -0.000000
vn 0.000000 -1.000000 0.000000
vn 0.000000 -1.000000 0.000000
vn 0.000000 -1.000000 0.000000
vn 0.000000 -1.000000 0.000000
vn 0.000000 -1.000000 0.000000
vn 0.000000 -1.000000 0.000000
vn 0.010345 0.999933 -0.005271
vn 0.010345 0.999933 -0.005271
vn 0.010345 0.999933 -0.005271
vn 0.010345 0.999933 -0.005271
vn 0.309017 0.000000 0.951057
vn 0.309017 0.000000 0.951057
vn 0.309017 0.000000 0.951057
vn 0.309017 0.000000 0.951057
vn 0.010345 -0.999933 -0.005271
vn 0.010345 -0.999933 -0.005271
vn 0.010345 -0.999933 -0.005271
vn 0.010345 -0.999933 -0.005271
vn -0.587786 0.000000 -0.809017
vn -0.587786 0.000000 -0.809017
vn -0.587786 0.000000 -0.809017
vn -0.587786 0.000000 -0.809017
vn 0.005271 0.999933 -0.010345
vn 0.005271 0.999933 -0.010345
vn 0.005271 0.999933 -0.010345
vn 0.005271 0.999933 -0.010345
vn 0.809017 0.000000 0.587785
vn 0.809017 0.000000 0.587785
vn 0.809017 0.000000 0.587785
vn 0.809017 0.000000 0.587785
vn 0.005271 -0.999933 -0.010345
vn 0.005271 -0.999933 -0.010345
vn 0.005271 -0.999933 -0.010345
vn 0.005271 -0.999933 -0.010345
vn -0.951057 0.000000 -0.309017
vn -0.951057 0.000000 -0.309017
vn -0.951057 0.000000 -0.309017
vn -0.951057 0.000000 -0.309017
vn -0.001816 0.999933 -0.011467
vn -0.001816 0.999933 -0.011467
vn -0.001816 0.999933 -0.011467
vn -0.001816 0.999933 -0.011467
vn 1.000000 0.000000 0.000000
vn 1.000000 0.000000 0.000000
vn 1.000000 0.000000 0.000000
vn 1.000000 0.000000 0.000000
vn -0.001816 -0.999933 -0.011467
vn -0.001816 -0.999933 -0.011467
vn -0.001816 -0.999933 -0.011467
vn -0.001816 -0.999933 -0.011467
vn -0.951057 0.000000 0.309017
vn -0.951057 0.000000 0.309017
vn -0.951057 0.000000 0.309017
vn -0.951057 0.000000 0.309017
vn -0.008210 0.999933 -0.008210
vn -0.008210 0.999933 -0.008210
vn -0.008210 0.999933 -0.008210
vn -0.008210 0.999933 -0.008210
vn 0.809017 0.000000 -0.587785
vn 0.809017 0.000000 -0.587785
vn 0.809017 0.000000 -0.587785
vn 0.809017 0.000000 -0.587785
vn -0.008210 -0.999933 -0.008210
vn -0.008210 -0.999933 -0.008210
vn -0.008210 -0.999933 -0.008210
vn -0.008210 -0.999933 -0.008210
vn -0.587786 0.000000 0.809017
vn -0.587786 0.000000 0.809017
vn -0.587786 0.000000 0.809017
vn -0.587786 0.000000 0.809017
vn -0.011467 0.999933 -0.001816
vn -0.011467 0.999933 -0.001816
vn -0.011467 0.999933 -0.001816
vn -0.011467 0.999933 -0.001816
vn 0.309017 0.000000 -0.951057
vn 0.309017 0.000000 -0.951057
vn 0.309017 0.000000 -0.951057
vn 0.309017 0.000000 -0.951057
vn -0.011467 -0.999933 -0.001816
vn -0.011467 -0.999933 -0.001816
vn -0.011467 -0.999933 -0.001816
vn -0.011467 -0.999933 -0.001816
vn 0.000000 0.000000 1.000000
vn 0.000000 0.000000 1.000000
vn 0.000000 0.000000 1.000000
vn 0.000000 0.000000 1.000000
vn -0.010345 0.999933 0.005271
vn -0.010345 0.999933 0.005271
vn -0.010345 0.999933 0.005271
vn -0.010345 0.999933 0.005271
vn -0.309017 0.000000 -0.951057
vn -0.309017 0.000000 -0.951057
vn -0.309017 0.000000 -0.951057
vn -0.309017 0.000000 -0.951057
vn -0.010345 -0.999933 0.005271
vn -0.010345 -0.999933 0.005271
vn -0.010345 -0.999933 0.005271
vn -0.010345 -0.999933 0.005271
vn 0.587784 0.000000 0.809018
vn 0.587784 0.000000 0.809018
vn 0.587784 0.000000 0.809018
vn 0.587784 0.000000 0.809018
vn -0.005271 0.999933 0.010345
vn -0.005271 0.999933 0.010345
vn -0.005271 0.999933 0.010345
vn -0.005271 0.999933 0.010345
vn -0.809017 0.000000 -0.587785
vn -0.809017 0.000000 -0.587785
vn -0.809017 0.000000 -0.587785
vn -0.809017 0.000000 -0.587785
vn -0.005271 -0.999933 0.010345
vn -0.005271 -0.999933 0.010345
vn -0.005271 -0.999933 0.010345
vn -0.005271 -0.999933 0.010345
vn 0.951057 0.000000 0.309017
vn 0.951057 0.000000 0.309017
vn 0.951057 0.000000 0.309017
vn 0.951057 0.000000 0.309017
vn 0.001816 0.999933 0.011467
vn 0.001816 0.999933 0.011467
vn 0.001816 0.999933 0.011467
vn 0.001816 0.999933 0.011467
vn -1.000000 0.000000 0.000000
vn -1.000000 0.000000 0.000000
vn -1.000000 0.000000 0.000000
vn -1.000000 0.000000 0.000000
vn 0.001816 -0.999933 0.011467
vn 0.001816 -0.999933 0.011467
vn 0.001816 -0.999933 0.011467
vn 0.001816 -0.999933 0.011467
vn 0.951057 0.000000 -0.309017
vn 0.951057 0.000000 -0.309017
vn 0.951057 0.000000 -0.309017
vn 0.951057 0.000000 -0.309017
vn 0.008210 0.999933 0.008210
vn 0.008210 0.999933 0.008210
vn 0.008210 0.999933 0.008210
vn 0.008210 0.999933 0.008210
vn -0.809017 0.000000 0.587785
vn -0.809017 0.000000 0.587785
vn -0.809017 0.000000 0.587785
vn -0.809017 0.000000 0.587785
vn 0.008210 -0.999933 0.008210
vn 0.008210 -0.999933 0.008210
vn 0.008210 -0.999933 0.008210
vn 0.008210 -0.999933 0.008210
vn 0.587785 0.000000 -0.809017
vn 0.587785 0.000000 -0.809017
vn 0.587785 0.000000 -0.809017
vn 0.587785 0.000000 -0.809017
vn 0.011467 0.999933 0.001816
vn 0.011467 0.999933 0.001816
vn 0.011467 0.999933 0.001816
vn 0.011467 0.999933 0.001816
vn -0.309017 0.000000 0.951057
vn -0.309017 0.000000 0.951057
vn -0.309017 0.000000 0.951057
vn -0.309017 0.000000 0.951057
vn 0.011467 -0.999933 0.001816
vn 0.011467 -0.999933 0.001816
vn 0.011467 -0.999933 0.001816
vn 0.011467 -0.999933 0.001816
vn 0.000000 0.000000 -1.000000
vn 0.000000 0.000000 -1.000000
vn 0.000000 0.000000 -1.000000
vn 0.000000 0.000000 -1.000000
s 1
g pPipe6
usemtl initialShadingGroup
f 2/2/1 1/1/2 21/22/3 22/23/4
f 3/3/5 2/2/1 22/23/4 23/24/6
f 4/4/7 3/3/5 23/24/6 24/25/8
f 5/5/9 4/4/7 24/25/8 25/26/10
f 6/6/11 5/5/9 25/26/10 26/27/12
f 7/7/13 6/6/11 26/27/12 27/28/14
f 8/8/15 7/7/13 27/28/14 28/29/16
f 9/9/17 8/8/15 28/29/16 29/30/18
f 10/10/19 9/9/17 29/30/18 30/31/20
f 11/11/21 10/10/19 30/31/20 31/32/22
f 12/12/23 11/11/21 31/32/22 32/33/24
f 13/13/25 12/12/23 32/33/24 33/34/26
f 14/14/27 13/13/25 33/34/26 34/35/28
f 15/15/29 14/14/27 34/35/28 35/36/30
f 16/16/31 15/15/29 35/36/30 36/37/32
f 17/17/33 16/16/31 36/37/32 37/38/34
f 18/18/35 17/17/33 37/38/34 38/39/36
f 19/19/37 18/18/35 38/39/36 39/40/38
f 20/20/39 19/19/37 39/40/38 40/41/40
f 1/21/2 20/20/39 40/41/40 21/42/3
s 2
f 22/23/41 21/22/42 41/43/43 42/44/44
f 23/24/45 22/23/41 42/44/44 43/45/46
f 24/25/47 23/24/45 43/45/46 44/46/48
f 25/26/49 24/25/47 44/46/48 45/47/50
f 26/27/51 25/26/49 45/47/50 46/48/52
f 27/28/53 26/27/51 46/48/52 47/49/54
f 28/29/55 27/28/53 47/49/54 48/50/56
f 29/30/57 28/29/55 48/50/56 49/51/58
f 30/31/59 29/30/57 49/51/58 50/52/60
f 31/32/61 30/31/59 50/52/60 51/53/62
f 32/33/63 31/32/61 51/53/62 52/54/64
f 33/34/65 32/33/63 52/54/64 53/55/66
f 34/35/67 33/34/65 53/55/66 54/56/68
f 35/36/69 34/35/67 54/56/68 55/57/70
f 36/37/71 35/36/69 55/57/70 56/58/72
f 37/38/73 36/37/71 56/58/72 57/59/74
f 38/39/75 37/38/73 57/59/74 58/60/76
f 39/40/77 38/39/75 58/60/76 59/61/78
f 40/41/79 39/40/77 59/61/78 60/62/80
f 21/42/42 40/41/79 60/62/80 41/63/43
s off
f 42/44/81 41/43/82 61/64/83 62/65/84
f 82/106/85 81/107/86 83/108/87 84/109/88
f 44/46/89 43/45/90 63/66/91 64/67/92
f 86/110/93 85/111/94 87/112/95 88/113/96
f 46/48/97 45/47/98 65/68/99 66/69/100
f 90/114/101 89/115/102 91/116/103 92/117/104
f 48/50/105 47/49/106 67/70/107 68/71/108
f 94/118/109 93/119/110 95/120/111 96/121/112
f 50/52/113 49/51/114 69/72/115 70/73/116
f 98/122/117 97/123/118 99/124/119 100/125/120
f 52/54/121 51/53/122 71/74/123 72/75/124
f 102/126/125 101/127/126 103/128/127 104/129/128
f 54/56/129 53/55/130 73/76/131 74/77/132
f 106/130/133 105/131/134 107/132/135 108/133/136
f 56/58/137 55/57/138 75/78/139 76/79/140
f 110/134/141 109/135/142 111/136/143 112/137/144
f 58/60/145 57/59/146 77/80/147 78/81/148
f 114/138/149 113/139/150 115/140/151 116/141/152
f 60/62/153 59/61/154 79/82/155 80/83/156
f 118/142/157 117/143/158 119/144/159 120/145/160
s 3
f 62/65/161 61/64/162 1/85/163 2/86/164
f 63/66/165 62/65/161 2/86/164 3/87/166
f 64/67/167 63/66/165 3/87/166 4/88/168
f 65/68/169 64/67/167 4/88/168 5/89/170
f 66/69/171 65/68/169 5/89/170 6/90/172
f 67/70/173 66/69/171 6/90/172 7/91/174
f 68/71/175 67/70/173 7/91/174 8/92/176
f 69/72/177 68/71/175 8/92/176 9/93/178
f 70/73/179 69/72/177 9/93/178 10/94/180
f 71/74/181 70/73/179 10/94/180 11/95/182
f 72/75/183 71/74/181 11/95/182 12/96/184
f 73/76/185 72/75/183 12/96/184 13/97/186
f 74/77/187 73/76/185 13/97/186 14/98/188
f 75/78/189 74/77/187 14/98/188 15/99/190
f 76/79/191 75/78/189 15/99/190 16/100/192
f 77/80/193 76/79/191 16/100/192 17/101/194
f 78/81/195 77/80/193 17/101/194 18/102/196
f 79/82/197 78/81/195 18/102/196 19/103/198
f 80/83/199 79/82/197 19/103/198 20/104/200
f 61/84/162 80/83/199 20/104/200 1/105/163
s off
f 43/45/201 42/44/202 81/107/203 82/106/204
f 42/44/205 62/65/206 83/108/207 81/107/208
f 62/65/209 63/66/210 84/109/211 83/108/212
f 63/66/213 43/45/214 82/106/215 84/109/216
f 45/47/217 44/46/218 85/111/219 86/110/220
f 44/46/221 64/67/222 87/112/223 85/111/224
f 64/67/225 65/68/226 88/113/227 87/112/228
f 65/68/229 45/47/230 86/110/231 88/113/232
f 47/49/233 46/48/234 89/115/235 90/114/236
f 46/48/237 66/69/238 91/116/239 89/115/240
f 66/69/241 67/70/242 92/117/243 91/116/244
f 67/70/245 47/49/246 90/114/247 92/117/248
f 49/51/249 48/50/250 93/119/251 94/118/252
f 48/50/253 68/71/254 95/120/255 93/119/256
f 68/71/257 69/72/258 96/121/259 95/120/260
f 69/72/261 49/51/262 94/118/263 96/121/264
f 51/53/265 50/52/266 97/123/267 98/122/268
f 50/52/269 70/73/270 99/124/271 97/123/272
f 70/73/273 71/74/274 100/125/275 99/124/276
f 71/74/277 51/53/278 98/122/279 100/125/280
f 53/55/281 52/54/282 101/127/283 102/126/284
f 52/54/285 72/75/286 103/128/287 101/127/288
f 72/75/289 73/76/290 104/129/291 103/128/292
f 73/76/293 53/55/294 102/126/295 104/129/296
f 55/57/297 54/56/298 105/131/299 106/130/300
f 54/56/301 74/77/302 107/132/303 105/131/304
f 74/77/305 75/78/306 108/133/307 107/132/308
f 75/78/309 55/57/310 106/130/311 108/133/312
f 57/59/313 56/58/314 109/135/315 110/134/316
f 56/58/317 76/79/318 111/136/319 109/135/320
f 76/79/321 77/80/322 112/137/323 111/136/324
f 77/80/325 57/59/326 110/134/327 112/137/328
f 59/61/329 58/60/330 113/139/331 114/138/332
f 58/60/333 78/81/334 115/140/335 113/139/336
f 78/81/337 79/82/338 116/141/339 115/140/340
f 79/82/341 59/61/342 114/138/343 116/141/344
f 41/63/345 60/62/346 117/143/347 118/142/348
f 60/62/349 80/83/350 119/144/351 117/143/352
f 80/83/353 61/84/354 120/145/355 119/144/356
f 61/84/357 41/63/358 118/142/359 120/145/360
