# This file uses centimeters as units for non-parametric coordinates.

mtllib headlights.mtl
g default
v 2.507330 0.186898 -0.071024
v 2.068681 0.012533 0.036553
v 2.109471 0.102544 0.027235
v 2.191892 0.170093 0.008615
v 2.584853 0.030581 -0.089863
v 2.524571 -0.148311 -0.075014
v 2.347390 0.205020 -0.031370
v 2.110022 -0.140891 0.028639
v 2.142989 -0.205020 0.000429
v 2.569319 -0.061888 -0.082188
v 2.506232 0.175870 -0.037301
v 2.355295 0.194877 0.000098
v 2.579477 0.028420 -0.055073
v 2.091466 0.007538 0.064157
v 2.203186 0.157226 0.037809
v 2.130681 0.096354 0.055367
v 2.565682 -0.058872 -0.047846
v 2.522563 -0.140457 -0.041079
v 2.158112 -0.193992 0.030080
v 2.131549 -0.133628 0.056684
v 2.375158 0.024222 0.035472
v 2.380625 -0.051962 0.032828
v 2.561764 0.117980 -0.080584
v 2.558495 0.111451 -0.046319
v 2.369974 0.096896 0.036420
v 2.315175 -0.053765 0.052677
v 2.310553 0.020048 0.055796
v 2.305873 0.094800 0.053700
v 2.298455 0.180808 0.014190
v 2.289284 0.191968 -0.016429
v 2.547220 -0.104569 -0.078646
v 2.544387 -0.099164 -0.044504
v 2.384038 -0.099688 0.031608
v 2.318218 -0.102395 0.048742
v 2.105019 -0.069021 0.059369
v 2.082845 -0.072638 0.031485
v 2.390227 -0.181135 -0.008507
v 2.384393 -0.190659 -0.040485
v 2.308955 -0.197181 -0.021903
v 2.319008 -0.186974 0.009018
v -2.507330 0.186898 -0.071024
v -2.068681 0.012533 0.036553
v -2.109471 0.102544 0.027236
v -2.191892 0.170093 0.008615
v -2.584853 0.030581 -0.089863
v -2.524571 -0.148311 -0.075014
v -2.347390 0.205020 -0.031370
v -2.110022 -0.140891 0.028639
v -2.384393 -0.190659 -0.040485
v -2.142989 -0.205020 0.000429
v -2.569319 -0.061888 -0.082188
v -2.375158 0.024222 0.035472
v -2.380625 -0.051962 0.032828
v -2.561764 0.117980 -0.080583
v -2.369974 0.096896 0.036419
v -2.315175 -0.053765 0.052677
v -2.310553 0.020048 0.055796
v -2.305873 0.094800 0.053701
v -2.289284 0.191968 -0.016428
v -2.308955 -0.197181 -0.021903
v -2.547220 -0.104569 -0.078645
v -2.384038 -0.099688 0.031607
v -2.318218 -0.102395 0.048742
v -2.082845 -0.072638 0.031485
vt 0.350789 0.366268
vt 0.356433 0.287145
vt 0.289303 0.203411
vt 0.051492 0.185488
vt 0.279941 0.365843
vt 0.279305 0.480530
vt 0.366614 0.152759
vt 0.362737 0.204647
vt 0.293377 0.149811
vt 0.542386 0.491104
vt 0.349692 0.529181
vt 0.347670 0.491820
vt 0.521267 0.459004
vt 0.646428 0.298427
vt 0.613075 0.405570
vt 0.579300 0.385943
vt 0.609074 0.292723
vt 0.013800 0.175102
vt 0.272956 0.517313
vt 0.151699 0.482420
vt 0.167533 0.448175
vt 0.049237 0.395766
vt 0.083244 0.376327
vt 0.002000 0.283397
vt 0.039325 0.273901
vt 0.395814 0.009032
vt 0.564438 0.071726
vt 0.539783 0.100062
vt 0.387559 0.045921
vt 0.601443 0.124693
vt 0.568144 0.145007
vt 0.626680 0.181250
vt 0.590924 0.192481
vt 0.101857 0.006422
vt 0.299185 0.002000
vt 0.303455 0.039225
vt 0.120056 0.040543
vt 0.051778 0.091294
vt 0.085441 0.112963
vt 0.284021 0.283690
vt 0.629199 0.755954
vt 0.634842 0.835079
vt 0.696331 0.672222
vt 0.712661 0.986132
vt 0.705683 0.834661
vt 0.619014 0.621574
vt 0.622890 0.673458
vt 0.692262 0.618622
vt 0.443246 0.959927
vt 0.635937 0.998000
vt 0.339205 0.767271
vt 0.372569 0.874398
vt 0.971843 0.643949
vt 0.833911 0.951248
vt 0.936378 0.864610
vt 0.983622 0.752246
vt 0.589793 0.477861
vt 0.421183 0.540559
vt 0.384159 0.593535
vt 0.358939 0.650104
vt 0.883789 0.475245
vt 0.686435 0.470809
vt 0.933873 0.560124
vt 0.701607 0.752504
vn 0.506513 0.171008 0.845104
vn 0.333914 0.163853 0.928253
vn 0.377064 0.007126 0.926160
vn 0.551353 0.013936 0.834156
vn -0.118739 0.233594 0.965057
vn 0.093522 0.184911 0.978295
vn 0.058696 0.541655 0.838549
vn -0.050469 0.513040 0.856880
vn 0.504070 -0.218294 0.835620
vn 0.345075 -0.227669 0.910544
vn 0.350584 -0.527232 0.774027
vn 0.444456 -0.524296 0.726342
vn -0.041492 -0.261290 0.964368
vn 0.132363 -0.244732 0.960513
vn 0.097776 -0.042142 0.994316
vn -0.105934 -0.086962 0.990563
vn 0.428291 0.861971 0.271244
vn 0.100767 0.946257 0.307318
vn 0.250676 0.544330 0.800541
vn 0.376645 0.488417 0.787139
vn 0.988727 0.046135 0.142441
vn 0.888443 0.422099 0.180284
vn -0.118955 0.915527 0.384266
vn -0.295939 0.834412 0.464949
vn -0.605590 0.543066 0.581670
vn -0.752036 0.144512 0.643085
vn -0.137145 0.025086 0.990233
vn 0.333800 -0.916093 0.222151
vn 0.506438 -0.835258 0.214161
vn 0.881705 -0.449129 0.144496
vn -0.140156 -0.900151 0.412414
vn 0.082883 -0.950695 0.298847
vn 0.154541 -0.534096 0.831179
vn 0.027486 -0.603373 0.796985
vn -0.746771 -0.236932 0.621448
vn -0.671189 -0.438917 0.597375
vn 0.092252 0.005785 0.995719
vn 0.958525 -0.251476 0.134127
vn 0.529265 -0.053979 0.846738
vn 0.377354 -0.016739 0.925918
vn -0.468621 0.186524 0.863483
vn -0.515713 0.014805 0.856634
vn -0.470671 0.013381 0.882208
vn -0.392948 0.264342 0.880747
vn 0.087042 0.184718 0.978930
vn 0.027454 0.482631 0.875394
vn -0.045077 0.522658 0.851350
vn -0.003437 0.282081 0.959385
vn -0.496843 -0.260102 0.827945
vn -0.427470 -0.464796 0.775393
vn -0.352646 -0.521751 0.776799
vn -0.404791 -0.355672 0.842403
vn 0.006674 -0.309253 0.950956
vn 0.081934 -0.067272 0.994365
vn 0.006000 -0.059583 0.998205
vn -0.068316 -0.353873 0.932795
vn -0.364271 0.430144 0.826004
vn -0.301079 0.474964 0.826898
vn 0.011655 0.010514 0.999877
vn 0.091025 0.004154 0.995840
vn -0.122157 -0.547463 0.827866
vn -0.521359 -0.026177 0.852936
vn -0.473474 -0.028658 0.880342
vn -0.069400 -0.519445 0.851681
vn 0.145064 -0.953934 0.262614
vn 0.145064 -0.953934 0.262614
vn 0.145064 -0.953934 0.262614
vn 0.145064 -0.953934 0.262614
s 1
g polySurface45
usemtl blinn11SG
f 24/16/1 25/1/2 21/2/3 13/17/4
f 16/23/5 28/5/6 29/6/7 15/21/8
f 32/31/9 33/7/10 37/29/11 18/28/12
f 20/39/13 34/9/14 26/3/15 35/4/16
f 1/10/17 7/11/18 12/12/19 11/13/20
f 5/14/21 23/15/22 24/16/1 13/17/4
f 29/6/7 30/19/23 4/20/24 15/21/8
f 4/20/24 3/22/25 16/23/5 15/21/8
f 3/22/25 2/24/26 14/25/27 16/23/5
f 38/26/28 6/27/29 18/28/12 37/29/11
f 6/27/29 31/30/30 32/31/9 18/28/12
f 9/34/31 39/35/32 40/36/33 19/37/34
f 36/18/35 8/38/36 20/39/13 35/4/16
f 8/38/36 9/34/31 19/37/34 20/39/13
f 24/16/1 23/15/22 1/10/17 11/13/20
f 11/13/20 12/12/19 25/1/2 24/16/1
f 27/40/37 28/5/6 16/23/5 14/25/27
f 21/2/3 25/1/2 28/5/6 27/40/37
f 29/6/7 28/5/6 25/1/2 12/12/19
f 7/11/18 30/19/23 29/6/7 12/12/19
f 33/7/10 34/9/14 40/36/33 37/29/11
f 32/31/9 31/30/30 10/32/38 17/33/39
f 17/33/39 22/8/40 33/7/10 32/31/9
f 26/3/15 34/9/14 33/7/10 22/8/40
f 19/37/34 40/36/33 34/9/14 20/39/13
f 17/33/39 10/32/38 5/14/21 13/17/4
f 21/2/3 22/8/40 17/33/39 13/17/4
f 27/40/37 26/3/15 22/8/40 21/2/3
f 35/4/16 26/3/15 27/40/37 14/25/27
f 2/24/26 36/18/35 35/4/16 14/25/27
s 6
f 54/52/41 45/51/42 52/41/43 55/42/44
f 43/55/45 44/54/46 59/44/47 58/45/48
f 61/59/49 46/58/50 49/57/51 62/46/52
f 48/63/53 64/53/54 56/43/55 63/48/56
f 41/49/57 54/52/41 55/42/44 47/50/58
f 57/64/59 42/56/60 43/55/45 58/45/48
f 52/41/43 57/64/59 58/45/48 55/42/44
f 59/44/47 47/50/58 55/42/44 58/45/48
f 62/46/52 49/57/51 60/62/61 63/48/56
f 51/60/62 61/59/49 62/46/52 53/47/63
f 56/43/55 53/47/63 62/46/52 63/48/56
f 50/61/64 48/63/53 63/48/56 60/62/61
f 52/41/43 45/51/42 51/60/62 53/47/63
f 57/64/59 52/41/43 53/47/63 56/43/55
f 64/53/54 42/56/60 57/64/59 56/43/55
s off
f 38/26/65 37/29/66 40/36/67 39/35/68
