# This file uses centimeters as units for non-parametric coordinates.

mtllib hood.mtl
g default
v 1.037934 -0.124590 0.892185
v -0.000000 -0.124619 0.892272
v 2.420336 0.027616 -0.009994
v 2.299275 -0.031970 0.386958
v 2.018217 -0.121849 0.726750
v 1.671997 -0.150241 0.861443
v 1.037951 -0.180376 1.007416
v 0.000000 -0.195774 1.007928
v 0.514716 -0.182782 1.007236
v 2.494087 0.072017 -0.324582
v 2.528791 0.162405 -1.028496
v 2.503485 0.120199 -0.632635
v 2.389364 0.085911 -0.085544
v 2.475515 0.145012 -0.360051
v 2.474813 0.218233 -0.700146
v 2.450216 0.295990 -1.061357
v 2.307710 0.022070 0.210937
v 2.455617 0.278924 -0.982040
v 1.464547 0.287568 -1.022240
v 1.037918 0.287494 -1.021897
v 0.514715 0.287417 -1.021491
v 0.000000 0.287321 -1.021091
v 1.472848 0.267379 -0.928465
v 0.514715 0.265962 -0.921838
v 1.037919 0.266737 -0.925439
v 0.000000 0.265198 -0.918285
v 1.496935 0.208791 -0.656340
v 1.037921 0.208801 -0.656337
v 0.514713 0.208806 -0.656407
v 0.000000 0.208816 -0.656454
v 1.522025 0.147774 -0.372879
v 1.037924 0.144495 -0.357648
v 0.514711 0.140973 -0.341289
v 0.000000 0.137500 -0.325162
v 1.545067 0.091719 -0.112566
v 1.037926 0.087712 -0.093908
v 0.514710 0.083581 -0.074771
v 0.000000 0.079520 -0.055906
v 1.569649 0.031926 0.165159
v 1.037928 0.026896 0.188519
v 0.514708 0.021980 0.211404
v -0.000000 0.017116 0.233949
v 2.007451 -0.068753 0.632787
v 1.621967 -0.095436 0.756723
v 0.514716 -0.124600 0.892185
v -1.037934 -0.124590 0.892185
v -0.208177 -0.124619 0.892272
v -2.420336 0.027616 -0.009994
v -2.299275 -0.031970 0.386958
v -2.018217 -0.121849 0.726750
v -1.671997 -0.150241 0.861443
v -1.037951 -0.180376 1.007416
v -0.210433 -0.195420 1.007903
v -0.514716 -0.182782 1.007236
v -2.494087 0.072017 -0.324582
v -2.528791 0.162405 -1.028496
v -2.503485 0.120199 -0.632635
v -2.389364 0.085911 -0.085544
v -2.475515 0.145012 -0.360051
v -2.474813 0.218233 -0.700146
v -2.450216 0.295990 -1.061357
v -2.307710 0.022070 0.210937
v -2.455617 0.278924 -0.982040
v -1.464547 0.287568 -1.022240
v -1.037918 0.287494 -1.021897
v -0.514715 0.287417 -1.021491
v -0.186510 0.287352 -1.021236
v -1.472848 0.267379 -0.928465
v -0.514715 0.265962 -0.921838
v -1.037919 0.266737 -0.925439
v -0.187667 0.265476 -0.919578
v -1.496935 0.208791 -0.656340
v -1.037921 0.208801 -0.656337
v -0.514713 0.208806 -0.656407
v -0.190661 0.208811 -0.656432
v -1.522025 0.147774 -0.372879
v -1.037924 0.144495 -0.357648
v -0.514711 0.140973 -0.341289
v -0.194362 0.138800 -0.331245
v -1.545067 0.091719 -0.112566
v -1.037926 0.087712 -0.093908
v -0.514710 0.083581 -0.074771
v -0.197412 0.081076 -0.063133
v -1.569649 0.031926 0.165159
v -1.037928 0.026896 0.188519
v -0.514708 0.021980 0.211404
v -0.200693 0.019016 0.225169
v -2.007451 -0.068753 0.632787
v -1.621967 -0.095436 0.756723
v -0.514716 -0.124600 0.892185
v 2.411091 0.304492 -1.100798
v 2.034126 -0.191826 0.840639
v 2.286811 -0.134430 0.636385
v 1.745925 -0.229505 0.987030
v 2.466101 -0.080517 0.194090
v 2.521530 -0.069389 -0.014333
v 0.514716 -0.283456 1.144119
v 1.210250 -0.270366 1.144240
v 0.000000 -0.304493 1.144470
v 2.630869 -0.043160 -0.548553
v 2.582048 -0.052964 -0.183052
v 2.625711 -0.037132 -0.764414
v 2.527384 0.163616 -1.144470
v 1.457593 0.304493 -1.100803
v 1.037917 0.304493 -1.100803
v 0.514716 0.304493 -1.100802
v 0.000000 0.304493 -1.100803
v -2.411091 0.304492 -1.100798
v -2.286811 -0.134430 0.636385
v -2.034126 -0.191826 0.840639
v -1.745925 -0.229505 0.987030
v -2.466101 -0.080517 0.194090
v -2.521530 -0.069389 -0.014333
v -1.210250 -0.270366 1.144240
v -0.514716 -0.283456 1.144119
v -0.213925 -0.298554 1.144450
v -2.630869 -0.043160 -0.548553
v -2.582048 -0.052964 -0.183052
v -2.527384 0.163616 -1.144470
v -2.625711 -0.037132 -0.764414
v -1.037917 0.304493 -1.100803
v -1.457593 0.304493 -1.100803
v -0.514716 0.304493 -1.100802
v -0.185605 0.304493 -1.100803
vt 0.942216 0.413397
vt 0.935397 0.420876
vt 0.911755 0.149822
vt 0.862229 0.086447
vt 0.865962 0.062651
vt 0.911100 0.101639
vt 0.800091 0.061576
vt 0.813971 0.035270
vt 0.936196 0.220570
vt 0.947294 0.179829
vt 0.952416 0.276537
vt 0.961157 0.216114
vt 0.686305 0.035024
vt 0.592413 0.034653
vt 0.592483 0.004164
vt 0.717571 0.005915
vt 0.499999 0.002000
vt 0.499999 0.033300
vt 0.686128 0.057945
vt 0.499999 0.057676
vt 0.968622 0.402081
vt 0.991469 0.309601
vt 0.958275 0.331606
vt 0.973735 0.245972
vt 0.998000 0.347593
vt 0.972529 0.422512
vt 0.928072 0.236624
vt 0.913153 0.182614
vt 0.941590 0.286410
vt 0.943280 0.347483
vt 0.942466 0.398842
vt 0.686592 0.409403
vt 0.763394 0.409287
vt 0.762304 0.423698
vt 0.686685 0.423872
vt 0.592569 0.423974
vt 0.592520 0.409427
vt 0.499999 0.409377
vt 0.499999 0.423995
vt 0.764685 0.392075
vt 0.592460 0.391143
vt 0.686475 0.391709
vt 0.499999 0.390517
vt 0.686166 0.342296
vt 0.768436 0.342077
vt 0.592312 0.342407
vt 0.499999 0.342445
vt 0.685893 0.287409
vt 0.772488 0.289950
vt 0.592187 0.284489
vt 0.499999 0.281543
vt 0.685773 0.238925
vt 0.776484 0.242112
vt 0.592127 0.235480
vt 0.499999 0.232022
vt 0.685757 0.187026
vt 0.780912 0.191147
vt 0.592117 0.182858
vt 0.499999 0.178705
vt 0.859506 0.105680
vt 0.790762 0.082655
vt 0.592322 0.057783
vt 0.064604 0.420877
vt 0.057785 0.413397
vt 0.088242 0.149823
vt 0.088897 0.101640
vt 0.134035 0.062651
vt 0.137769 0.086447
vt 0.186026 0.035270
vt 0.199907 0.061576
vt 0.063802 0.220570
vt 0.052704 0.179830
vt 0.047582 0.276538
vt 0.038841 0.216115
vt 0.313693 0.035024
vt 0.282427 0.005914
vt 0.407516 0.004164
vt 0.407586 0.034653
vt 0.462219 0.033331
vt 0.461582 0.002635
vt 0.313871 0.057944
vt 0.462656 0.057677
vt 0.031379 0.402082
vt 0.008531 0.309603
vt 0.026263 0.245973
vt 0.041724 0.331608
vt 0.027473 0.422513
vt 0.002000 0.347596
vt 0.071926 0.236624
vt 0.086845 0.182614
vt 0.058409 0.286410
vt 0.056720 0.347483
vt 0.057535 0.398843
vt 0.313406 0.409403
vt 0.313313 0.423871
vt 0.237695 0.423698
vt 0.236604 0.409286
vt 0.407429 0.423973
vt 0.407478 0.409427
vt 0.466473 0.409401
vt 0.466615 0.423993
vt 0.235313 0.392075
vt 0.407538 0.391143
vt 0.313523 0.391709
vt 0.466288 0.390751
vt 0.313833 0.342296
vt 0.231563 0.342077
vt 0.407686 0.342407
vt 0.465806 0.342434
vt 0.314106 0.287408
vt 0.227510 0.289949
vt 0.407812 0.284489
vt 0.465189 0.282659
vt 0.314225 0.238924
vt 0.223515 0.242111
vt 0.407871 0.235480
vt 0.464665 0.233350
vt 0.314242 0.187026
vt 0.219087 0.191146
vt 0.407882 0.182857
vt 0.464082 0.180323
vt 0.140491 0.105679
vt 0.209236 0.082655
vt 0.407676 0.057783
vn 0.399515 0.848022 0.348204
vn 0.147921 0.886677 0.438090
vn 0.147620 0.872953 0.464931
vn 0.246536 0.879090 0.407948
vn 0.082123 0.877751 0.472027
vn 0.092644 0.866624 0.490287
vn 0.638674 0.719125 0.273778
vn 0.592678 0.747906 0.298946
vn 0.752278 0.623920 0.211664
vn 0.678230 0.696748 0.233551
vn 0.020173 0.859749 0.510318
vn -0.012932 0.841243 0.540503
vn -0.017638 0.806399 0.591108
vn 0.052885 0.856806 0.512920
vn 0.059004 0.972852 0.223779
vn 0.086122 0.972867 0.214740
vn 0.049435 0.973084 0.225087
vn 0.028916 0.968704 0.246530
vn 0.011607 0.968083 0.250362
vn 0.005986 0.967068 0.254448
vn -0.001022 0.967707 0.252075
vn -0.001209 0.965721 0.259578
vn -0.011584 0.826326 0.563073
vn -0.014674 0.792710 0.609423
vn 0.878713 0.476078 0.034835
vn 0.813287 0.571733 0.108102
vn 0.703842 0.688618 0.174393
vn 0.764687 0.635004 0.109656
vn 0.109131 0.972138 0.207455
vn 0.126536 0.970820 0.203711
vn 0.903874 0.427714 -0.008552
vn 0.884356 0.466798 0.003754
vn 0.115369 0.973541 0.197250
vn 0.000008 0.977597 0.210487
vn 0.000000 0.977593 0.210506
vn 0.000002 0.977567 0.210624
vn 0.000006 0.977580 0.210564
vn 0.000000 0.977586 0.210536
vn -0.000000 0.977599 0.210475
vn -0.000007 0.977600 0.210474
vn -0.000007 0.977583 0.210552
vn 0.000007 0.977601 0.210467
vn -0.000000 0.977603 0.210460
vn -0.000004 0.977598 0.210480
vn -0.000002 0.977597 0.210484
vn 0.000002 0.977601 0.210469
vn -0.000000 0.977601 0.210465
vn -0.000005 0.977600 0.210473
vn -0.000004 0.977599 0.210476
vn -0.000000 0.977600 0.210474
vn -0.000000 0.977600 0.210473
vn -0.000005 0.977600 0.210473
vn -0.000007 0.977600 0.210474
vn 0.000003 0.977597 0.210487
vn -0.000000 0.977596 0.210491
vn -0.000005 0.977598 0.210482
vn -0.000003 0.977598 0.210479
vn 0.000004 0.977600 0.210473
vn 0.000003 0.977599 0.210477
vn -0.000005 0.977600 0.210473
vn 0.000000 0.977600 0.210474
vn 0.000003 0.977564 0.210640
vn -0.399515 0.848022 0.348204
vn -0.246537 0.879089 0.407948
vn -0.147620 0.872954 0.464931
vn -0.147921 0.886677 0.438090
vn -0.092644 0.866623 0.490286
vn -0.082123 0.877751 0.472027
vn -0.638674 0.719125 0.273778
vn -0.592678 0.747906 0.298946
vn -0.752278 0.623920 0.211664
vn -0.678229 0.696749 0.233551
vn -0.020173 0.859749 0.510318
vn -0.052885 0.856806 0.512920
vn 0.019155 0.811914 0.583463
vn 0.014406 0.845478 0.533816
vn 0.019158 0.827562 0.561047
vn 0.025709 0.796535 0.604045
vn -0.059004 0.972852 0.223779
vn -0.086122 0.972867 0.214740
vn -0.049435 0.973084 0.225087
vn -0.028916 0.968704 0.246530
vn -0.011607 0.968083 0.250362
vn -0.005986 0.967068 0.254448
vn 0.001233 0.968120 0.250486
vn 0.001722 0.965655 0.259822
vn -0.878712 0.476079 0.034835
vn -0.764687 0.635004 0.109656
vn -0.703842 0.688617 0.174393
vn -0.813287 0.571733 0.108102
vn -0.109131 0.972138 0.207455
vn -0.126536 0.970820 0.203711
vn -0.884355 0.466799 0.003754
vn -0.903873 0.427716 -0.008552
vn -0.115369 0.973541 0.197250
vn -0.000008 0.977597 0.210487
vn -0.000006 0.977580 0.210564
vn -0.000002 0.977567 0.210624
vn -0.000000 0.977593 0.210506
vn -0.000000 0.977586 0.210536
vn 0.000000 0.977599 0.210475
vn 0.000010 0.977599 0.210474
vn 0.000010 0.977582 0.210558
vn -0.000007 0.977601 0.210467
vn 0.000000 0.977603 0.210460
vn 0.000004 0.977598 0.210479
vn 0.000002 0.977598 0.210482
vn -0.000002 0.977601 0.210469
vn 0.000000 0.977601 0.210465
vn 0.000009 0.977599 0.210476
vn -0.000000 0.977598 0.210482
vn 0.000000 0.977600 0.210474
vn 0.000000 0.977600 0.210473
vn 0.000012 0.977600 0.210474
vn -0.000000 0.977600 0.210473
vn -0.000003 0.977597 0.210487
vn 0.000000 0.977596 0.210491
vn 0.000006 0.977599 0.210476
vn 0.000005 0.977601 0.210468
vn -0.000004 0.977600 0.210473
vn -0.000003 0.977599 0.210477
vn -0.000000 0.977600 0.210473
vn 0.000010 0.977600 0.210474
vn -0.000003 0.977564 0.210640
s 1
g polySurface40 polySurface39
usemtl blinn6SG
f 4/3/1 5/4/2 92/5/3 93/6/4
f 5/4/2 6/7/5 94/8/6 92/5/3
f 3/9/7 4/3/1 93/6/4 95/10/8
f 10/11/9 3/9/7 95/10/8 96/12/10
f 7/13/11 9/14/12 97/15/13 98/16/14
f 98/16/14 94/8/6 6/7/5 7/13/11
f 13/27/15 3/9/7 10/11/9 14/29/16
f 17/28/17 4/3/1 3/9/7 13/27/15
f 43/60/18 5/4/2 4/3/1 17/28/17
f 44/61/19 6/7/5 5/4/2 43/60/18
f 7/13/11 6/7/5 44/61/19 1/19/20
f 1/19/20 45/62/21 9/14/12 7/13/11
f 9/14/12 45/62/21 2/20/22 8/18/23
f 97/15/13 9/14/12 8/18/23 99/17/24
f 11/21/25 12/23/26 101/24/27 100/22/28
f 101/24/27 12/23/26 10/11/9 96/12/10
f 10/11/9 12/23/26 15/30/29 14/29/16
f 11/21/25 18/31/30 15/30/29 12/23/26
f 100/22/28 102/25/31 103/26/32 11/21/25
f 16/1/33 18/31/30 11/21/25 103/26/32
f 20/32/34 19/33/35 104/34/36 105/35/37
f 106/36/38 21/37/39 20/32/34 105/35/37
f 22/38/40 21/37/39 106/36/38 107/39/41
f 25/42/42 23/40/43 19/33/35 20/32/34
f 20/32/34 21/37/39 24/41/44 25/42/42
f 26/43/45 24/41/44 21/37/39 22/38/40
f 28/44/46 27/45/47 23/40/43 25/42/42
f 25/42/42 24/41/44 29/46/48 28/44/46
f 30/47/49 29/46/48 24/41/44 26/43/45
f 32/48/50 31/49/51 27/45/47 28/44/46
f 28/44/46 29/46/48 33/50/52 32/48/50
f 34/51/53 33/50/52 29/46/48 30/47/49
f 36/52/54 35/53/55 31/49/51 32/48/50
f 32/48/50 33/50/52 37/54/56 36/52/54
f 38/55/57 37/54/56 33/50/52 34/51/53
f 40/56/58 39/57/59 35/53/55 36/52/54
f 36/52/54 37/54/56 41/58/60 40/56/58
f 42/59/61 41/58/60 37/54/56 38/55/57
f 16/1/33 91/2/62 104/34/36 19/33/35
f 18/31/30 16/1/33 19/33/35 23/40/43
f 15/30/29 18/31/30 23/40/43 27/45/47
f 14/29/16 15/30/29 27/45/47 31/49/51
f 13/27/15 14/29/16 31/49/51 35/53/55
f 17/28/17 13/27/15 35/53/55 39/57/59
f 44/61/19 43/60/18 17/28/17 39/57/59
f 1/19/20 44/61/19 39/57/59 40/56/58
f 40/56/58 41/58/60 45/62/21 1/19/20
f 2/20/22 45/62/21 41/58/60 42/59/61
f 49/65/63 109/66/64 110/67/65 50/68/66
f 50/68/66 110/67/65 111/69/67 51/70/68
f 48/71/69 112/72/70 109/66/64 49/65/63
f 55/73/71 113/74/72 112/72/70 48/71/69
f 52/75/73 114/76/74 115/77/75 54/78/76
f 99/17/24 8/18/23 53/79/77 116/80/78
f 114/76/74 52/75/73 51/70/68 111/69/67
f 58/89/79 59/91/80 55/73/71 48/71/69
f 62/90/81 58/89/79 48/71/69 49/65/63
f 88/122/82 62/90/81 49/65/63 50/68/66
f 89/123/83 88/122/82 50/68/66 51/70/68
f 52/75/73 46/81/84 89/123/83 51/70/68
f 46/81/84 52/75/73 54/78/76 90/124/85
f 8/18/23 2/20/22 47/82/86 53/79/77
f 54/78/76 53/79/77 47/82/86 90/124/85
f 115/77/75 116/80/78 53/79/77 54/78/76
f 56/83/87 117/84/88 118/85/89 57/86/90
f 118/85/89 113/74/72 55/73/71 57/86/90
f 55/73/71 59/91/80 60/92/91 57/86/90
f 56/83/87 57/86/90 60/92/91 63/93/92
f 117/84/88 56/83/87 119/87/93 120/88/94
f 61/64/95 119/87/93 56/83/87 63/93/92
f 65/94/96 121/95/97 122/96/98 64/97/99
f 123/98/100 121/95/97 65/94/96 66/99/101
f 67/100/102 124/101/103 123/98/100 66/99/101
f 107/39/41 124/101/103 67/100/102 22/38/40
f 70/104/104 65/94/96 64/97/99 68/102/105
f 65/94/96 70/104/104 69/103/106 66/99/101
f 71/105/107 67/100/102 66/99/101 69/103/106
f 67/100/102 71/105/107 26/43/45 22/38/40
f 73/106/108 70/104/104 68/102/105 72/107/109
f 70/104/104 73/106/108 74/108/110 69/103/106
f 75/109/111 71/105/107 69/103/106 74/108/110
f 71/105/107 75/109/111 30/47/49 26/43/45
f 77/110/112 73/106/108 72/107/109 76/111/113
f 73/106/108 77/110/112 78/112/114 74/108/110
f 79/113/115 75/109/111 74/108/110 78/112/114
f 75/109/111 79/113/115 34/51/53 30/47/49
f 81/114/116 77/110/112 76/111/113 80/115/117
f 77/110/112 81/114/116 82/116/118 78/112/114
f 83/117/119 79/113/115 78/112/114 82/116/118
f 79/113/115 83/117/119 38/55/57 34/51/53
f 85/118/120 81/114/116 80/115/117 84/119/121
f 81/114/116 85/118/120 86/120/122 82/116/118
f 87/121/123 83/117/119 82/116/118 86/120/122
f 83/117/119 87/121/123 42/59/61 38/55/57
f 61/64/95 64/97/99 122/96/98 108/63/124
f 63/93/92 68/102/105 64/97/99 61/64/95
f 60/92/91 72/107/109 68/102/105 63/93/92
f 59/91/80 76/111/113 72/107/109 60/92/91
f 58/89/79 80/115/117 76/111/113 59/91/80
f 62/90/81 84/119/121 80/115/117 58/89/79
f 89/123/83 84/119/121 62/90/81 88/122/82
f 46/81/84 85/118/120 84/119/121 89/123/83
f 85/118/120 46/81/84 90/124/85 86/120/122
f 47/82/86 87/121/123 86/120/122 90/124/85
f 87/121/123 47/82/86 2/20/22 42/59/61
