# This file uses centimeters as units for non-parametric coordinates.

mtllib mirror2.mtl
g default
v -0.354073 -0.201215 0.401232
v -0.286453 -0.201215 0.401232
v -0.354073 -0.080905 0.328526
v -0.286453 -0.080905 0.328526
v -0.354073 -0.080905 0.208217
v -0.276188 -0.080905 0.208217
v -0.354073 -0.201215 0.208217
v -0.276188 -0.201215 0.208217
v -0.349491 -0.014082 0.057012
v -0.244167 -0.014082 0.057012
v -0.244167 -0.186030 0.057012
v -0.349491 -0.186030 0.057012
v -0.323502 0.066989 -0.076067
v -0.161808 0.066989 -0.076067
v -0.161808 -0.138738 -0.076067
v -0.323502 -0.138738 -0.076067
v -0.276188 -0.153890 0.208217
v -0.244167 -0.123320 0.057012
v -0.161808 -0.067350 -0.076067
v -0.354073 -0.153890 0.372633
v -0.286453 -0.153890 0.372633
v -0.323502 0.066953 -0.362560
v -0.161808 -0.138747 -0.401233
v -0.323502 -0.138747 -0.401233
v -0.323502 0.066913 -0.401233
v -0.323502 -0.067380 -0.401233
v -0.119503 0.201201 -0.334704
v 0.181812 0.066989 -0.121785
v 0.213051 -0.067350 -0.121785
v 0.213051 -0.138738 -0.121785
v 0.354031 -0.067362 -0.401231
v 0.322792 0.066953 -0.401231
v -0.323502 0.066971 -0.218985
v -0.119503 0.201214 -0.228420
v 0.168499 0.196841 -0.236990
v 0.322834 0.066971 -0.218986
v 0.354073 -0.067357 -0.218986
v 0.354073 -0.138740 -0.218986
v -0.119503 0.184908 -0.126994
v -0.119503 0.196853 -0.138940
v -0.125061 0.166992 -0.112343
v -0.119503 0.196804 -0.390853
v -0.156292 0.184855 -0.401227
v -0.144344 0.196804 -0.390571
v -0.174999 0.166932 -0.401227
v -0.156292 0.184882 -0.334701
v -0.144344 0.196828 -0.334703
v -0.174999 0.166964 -0.338282
v -0.156292 0.184908 -0.126994
v -0.174999 0.166992 -0.112343
v -0.144344 0.196853 -0.138940
v -0.144344 0.196842 -0.228419
v -0.156292 0.184896 -0.228417
v -0.174999 0.166978 -0.225053
v 0.078133 0.184902 -0.160199
v 0.087933 0.166992 -0.148399
v 0.168472 0.196829 -0.390851
v 0.180416 0.184883 -0.401224
v 0.199120 0.166964 -0.401224
v 0.071880 0.196838 -0.170400
v 0.180447 0.184895 -0.230716
v 0.199154 0.166978 -0.225058
v 0.354031 -0.138741 -0.401231
v 0.087646 0.196813 -0.390853
v 0.135635 0.116179 -0.134876
v -0.143734 0.116179 -0.093910
v -0.260498 0.116179 -0.093910
v -0.260498 0.116162 -0.221970
v -0.260498 0.116146 -0.350618
v -0.260498 0.116111 -0.401230
v 0.261959 0.116146 -0.401227
v 0.261997 0.116162 -0.221973
v -0.125305 0.059105 -0.382447
v -0.125305 -0.047503 -0.382447
v 0.152870 -0.047499 -0.382447
v 0.154690 0.059114 -0.382447
v -0.110954 0.098161 -0.382445
v 0.118576 0.098168 -0.382444
v -0.091721 0.152733 -0.382442
v -0.096130 0.138505 -0.382442
v 0.076679 0.152740 -0.382440
v 0.081272 0.138512 -0.382440
vt 0.433417 0.806405
vt 0.374272 0.823696
vt 0.359802 0.777264
vt 0.419409 0.759414
vt 0.293738 0.844572
vt 0.270518 0.791155
vt 0.653023 0.796083
vt 0.652755 0.870275
vt 0.266074 0.644026
vt 0.402942 0.638651
vt 0.404109 0.687614
vt 0.264699 0.701148
vt 0.386325 0.723144
vt 0.266562 0.736176
vt 0.197283 0.901457
vt 0.151187 0.840933
vt 0.153768 0.760249
vt 0.162170 0.638028
vt 0.152971 0.714019
vt 0.107362 0.963328
vt 0.028104 0.885704
vt 0.038942 0.795027
vt 0.062124 0.636671
vt 0.039745 0.746367
vt 0.471896 0.795038
vt 0.457931 0.747995
vt 0.776824 0.557775
vt 0.775406 0.630780
vt 0.321431 0.378452
vt 0.432669 0.323506
vt 0.469424 0.404834
vt 0.364526 0.467417
vt 0.301572 0.333242
vt 0.418145 0.277923
vt 0.847421 0.870343
vt 0.845734 0.796250
vt 0.923602 0.028280
vt 0.812450 0.028259
vt 0.662479 0.897553
vt 0.998428 0.622472
vt 0.946384 0.640117
vt 0.935235 0.607193
vt 0.989897 0.597309
vt 0.906900 0.523597
vt 0.958395 0.503715
vt 0.813686 0.397704
vt 0.813406 0.302277
vt 0.812961 0.252042
vt 0.577554 0.395156
vt 0.550543 0.303607
vt 0.544013 0.254990
vt 0.457683 0.028445
vt 0.822454 0.897524
vt 0.581874 0.555094
vt 0.457817 0.153630
vt 0.878717 0.440707
vt 0.925777 0.410066
vt 0.923860 0.251872
vt 0.802391 0.487211
vt 0.777829 0.484562
vt 0.783302 0.469260
vt 0.818066 0.473777
vt 0.776791 0.496122
vt 0.792297 0.496881
vt 0.792383 0.669316
vt 0.774847 0.669734
vt 0.676218 0.934849
vt 0.672861 0.925291
vt 0.793027 0.630895
vt 0.804708 0.630943
vt 0.803996 0.676714
vt 0.822488 0.633439
vt 0.821852 0.676817
vt 0.794376 0.557695
vt 0.806086 0.557489
vt 0.823984 0.554653
vt 0.642500 0.502277
vt 0.633325 0.488859
vt 0.648158 0.512583
vt 0.540933 0.662454
vt 0.554582 0.541051
vt 0.571281 0.548633
vt 0.558768 0.664712
vt 0.571226 0.659082
vt 0.628182 0.663965
vt 0.793157 0.935038
vt 0.796422 0.925264
vt 0.499513 0.445041
vt 0.397150 0.513244
vt 0.799215 0.433536
vt 0.602896 0.434108
vt 0.842765 0.547257
vt 0.867709 0.621033
vt 0.881585 0.661997
vt 0.533511 0.487271
vt 0.430396 0.558279
vt 0.513746 0.780620
vt 0.512769 0.874958
vt 0.627588 0.728680
vt 0.515046 0.730601
vt 0.966661 0.875634
vt 0.987231 0.780946
vt 0.985938 0.730946
vt 0.555965 0.910785
vt 0.628126 0.960448
vt 0.639033 0.969267
vt 0.656076 0.969686
vt 0.615072 0.947777
vt 0.857978 0.968912
vt 0.868597 0.960213
vt 0.801206 0.971284
vt 0.881483 0.947532
vt 0.924904 0.911300
vn 0.000000 0.517217 0.855855
vn 0.862492 0.249644 0.440211
vn 0.710104 0.636025 0.302034
vn 0.000000 0.921804 0.387656
vn 0.722341 0.625946 0.293964
vn 0.000000 0.965688 0.259707
vn 0.014206 0.091752 -0.995681
vn 0.046127 -0.012107 -0.998862
vn 0.025966 0.093050 -0.995323
vn 0.074796 0.042650 -0.996286
vn 0.000000 -0.998783 -0.049320
vn 0.487632 -0.872886 0.016881
vn 0.392447 -0.885311 0.249419
vn 0.000000 -0.966806 0.255512
vn 0.989845 0.009178 0.141857
vn 0.533682 0.603408 0.592523
vn 0.000000 0.883358 0.468700
vn 0.922417 0.000000 0.386197
vn 0.000000 -0.973546 -0.228492
vn 0.408978 -0.908727 -0.083384
vn 0.218372 0.230794 0.948181
vn -0.177307 0.868249 0.463364
vn 0.367043 0.007254 0.930176
vn 0.000000 -0.995301 -0.096831
vn 0.072966 -0.985467 0.153398
vn 0.004521 -0.968860 -0.247568
vn 0.012632 -0.962144 -0.272249
vn 0.001963 0.999931 0.011572
vn 0.000959 0.999933 -0.011574
vn -0.394280 0.918951 -0.008488
vn -0.388900 0.921255 0.006765
vn 0.804947 0.125956 -0.579824
vn 0.684837 0.358742 -0.634273
vn 0.827776 0.382467 0.410495
vn 0.894074 0.133760 0.427481
vn 0.128754 -0.979209 -0.156755
vn 0.698462 -0.622873 0.352391
vn -0.021343 0.106482 -0.994086
vn -0.051722 -0.023307 -0.998390
vn 0.051332 -0.051608 -0.997347
vn -0.210320 0.373827 -0.903338
vn -0.615413 0.788205 -0.000259
vn -0.560990 0.827823 -0.000236
vn -0.615420 0.788199 -0.000100
vn -0.561671 0.827361 -0.000105
vn 0.289575 0.038612 0.956376
vn 0.273135 0.152537 0.949805
vn 0.053473 -0.979738 0.193014
vn -0.050553 -0.055464 -0.997180
vn 0.082422 0.996006 0.034339
vn 0.073767 0.992106 -0.101407
vn -0.443819 0.793573 0.416254
vn -0.569109 0.788044 0.234739
vn -0.423477 0.819857 0.385360
vn 0.117585 0.391073 0.912818
vn 0.110873 0.636895 0.762937
vn -0.378479 0.917771 0.120210
vn 0.019405 0.986260 0.164056
vn -0.327101 0.466581 -0.821771
vn -0.232535 0.820448 -0.522296
vn 0.021989 0.751105 -0.659817
vn 0.026184 -0.142772 -0.989409
vn -0.228075 0.399342 -0.887979
vn 0.057589 -0.057693 -0.996672
vn -0.697601 0.716486 -0.000169
vn -0.548499 0.836151 -0.000217
vn -0.697543 0.716543 -0.000090
vn -0.547336 0.836913 -0.000106
vn 0.239940 0.654486 0.716991
vn 0.047413 0.988536 0.143345
vn 0.239854 0.460343 0.854725
vn -0.029185 -0.120910 -0.992234
vn -0.042393 -0.040943 -0.998262
vn -0.017249 0.797987 -0.602428
vn 0.528240 0.636914 -0.561518
vn 0.516547 0.584154 -0.626053
vn 0.612900 0.737655 0.283229
vn 0.593213 0.741476 0.313549
vn 0.099141 0.335140 0.936938
vn 0.542743 0.678944 -0.494434
vn 0.594213 0.752167 0.284878
vn 0.262594 0.446974 0.855137
s 1
g polySurface92 group6 polySurface17
usemtl blinn10SG
f 20/1/1 21/4/2 4/3/3 3/2/4
f 3/2/4 4/3/3 6/6/5 5/5/6
f 25/98/7 73/8/8 74/7/9 26/97/10
f 7/9/11 8/12/12 2/11/13 1/10/14
f 21/13/2 17/14/15 6/6/5 4/3/3
f 5/5/6 6/6/5 10/16/16 9/15/17
f 6/6/5 17/14/15 18/17/18 10/16/16
f 12/18/19 11/19/20 8/12/12 7/9/11
f 9/15/17 10/16/16 14/21/21 13/20/22
f 10/16/16 18/17/18 19/22/23 14/21/21
f 16/23/24 15/24/25 11/19/20 12/18/19
f 17/14/15 8/12/12 11/19/20 18/17/18
f 19/22/23 18/17/18 11/19/20 15/24/25
f 74/7/9 23/99/26 24/100/27 26/97/10
f 1/25/14 2/26/13 21/4/2 20/1/1
f 2/11/13 8/12/12 17/14/15 21/13/2
f 34/27/28 27/28/29 47/69/30 52/74/31
f 31/29/32 32/32/33 36/31/34 37/30/35
f 63/33/36 31/29/32 37/30/35 38/34/37
f 32/101/33 31/102/32 75/36/38 76/35/39
f 31/102/32 63/103/36 75/36/38
f 77/39/40 73/8/8 25/98/7 70/104/41
f 25/40/7 22/43/42 69/42/43 70/41/41
f 22/43/42 33/45/44 68/44/45 69/42/43
f 14/46/21 19/47/23 29/50/46 28/49/47
f 19/47/23 15/48/25 30/51/48 29/50/46
f 23/99/26 74/7/9 75/36/38 63/103/36
f 74/7/9 73/8/8 76/35/39 75/36/38
f 76/35/39 73/8/8 77/39/40 78/53/49
f 27/28/29 34/27/28 35/54/50 57/84/51
f 38/55/37 30/51/48 63/52/36
f 30/51/48 15/48/25 23/38/26 63/52/36
f 33/45/44 13/57/22 67/56/52 68/44/45
f 37/30/35 36/31/34 28/49/47 29/50/46
f 38/34/37 37/30/35 29/50/46 30/51/48
f 49/59/53 50/62/54 41/61/55 39/60/56
f 51/64/57 49/59/53 39/60/56 40/63/58
f 43/105/59 44/106/60 42/107/61 79/67/62
f 45/108/63 43/105/59 79/67/62 80/68/64
f 44/65/60 43/71/59 46/70/65 47/69/30
f 43/71/59 45/73/63 48/72/66 46/70/65
f 47/69/30 46/70/65 53/75/67 52/74/31
f 46/70/65 48/72/66 54/76/68 53/75/67
f 50/62/54 49/59/53 53/75/67 54/76/68
f 49/59/53 51/64/57 52/74/31 53/75/67
f 40/63/58 39/60/56 55/77/69 60/79/70
f 39/60/56 41/61/55 56/78/71 55/77/69
f 80/68/64 79/67/62 81/86/72 82/87/73
f 79/67/62 42/107/61 64/111/74 81/86/72
f 59/80/75 58/83/76 61/82/77 62/81/78
f 58/83/76 57/84/51 35/54/50 61/82/77
f 57/109/51 58/110/76 81/86/72 64/111/74
f 58/110/76 59/112/75 82/87/73 81/86/72
f 60/79/70 55/77/69 61/82/77 35/54/50
f 55/77/69 56/78/71 62/81/78 61/82/77
f 27/28/29 42/66/61 44/65/60 47/69/30
f 66/90/79 67/56/52 13/57/22 14/46/21
f 71/113/80 32/101/33 76/35/39 78/53/49
f 72/88/81 36/31/34 32/32/33 71/89/80
f 14/46/21 28/49/47 65/91/82 66/90/79
f 42/66/61 27/28/29 57/84/51 64/85/74
f 34/27/28 52/74/31 51/64/57 40/63/58
f 35/54/50 34/27/28 40/63/58 60/79/70
f 28/49/47 36/31/34 72/88/81 65/91/82
f 66/90/79 65/91/82 56/78/71 41/61/55
f 41/61/55 50/62/54 67/56/52 66/90/79
f 68/44/45 67/56/52 50/62/54 54/92/68
f 69/42/43 68/44/45 54/92/68 48/93/66
f 70/41/41 69/42/43 48/93/66 45/94/63
f 80/68/64 77/39/40 70/104/41 45/108/63
f 78/53/49 77/39/40 80/68/64 82/87/73
f 59/112/75 71/113/80 78/53/49 82/87/73
f 62/95/78 72/88/81 71/89/80 59/96/75
f 65/91/82 72/88/81 62/95/78 56/78/71
f 16/58/24 24/37/27 23/38/26 15/48/25
